<svg xmlns="http://www.w3.org/2000/svg" viewBox="0 0 50 50"><defs><style>.cls-1{fill:none;}.cls-2{fill:#fff;}</style></defs><title>google-icon</title><g id="Capa_2" data-name="Capa 2"><g id="Capa_2-2" data-name="Capa 2"><rect class="cls-1" width="50" height="50"/><g id="Capa_2-2-2" data-name="Capa 2-2"><path class="cls-2" d="M10.86,17.72a15.22,15.22,0,0,1,2.91-4.07A15.51,15.51,0,0,1,22,9.16a15.65,15.65,0,0,1,14,3.67c.16.14.18.23,0,.38l-4.22,4.21c-.12.13-.2.14-.33,0a9.28,9.28,0,0,0-10.65-1.14,9.93,9.93,0,0,0-4.61,5.48c-.11.18-.23.07-.33,0-.39-.28-.75-.58-1.13-.88-1-.76-2-1.54-3-2.29L11,18A.25.25,0,0,1,10.86,17.72Z"/><path class="cls-2" d="M36,37.29a11.86,11.86,0,0,1-2.52,1.87,16.28,16.28,0,0,1-9.19,2,16.23,16.23,0,0,1-13.39-8.72l-.08-.18a.48.48,0,0,1,.21-.34q1.32-1,2.61-2l2.14-1.66c.09-.08.21-.25.36-.05a9.83,9.83,0,0,0,3,4.37,9.5,9.5,0,0,0,7.11,2.25,9.67,9.67,0,0,0,4.65-1.54c.15-.07.24,0,.34.11.65.52,1.29,1,1.95,1.53.87.66,1.72,1.34,2.58,2C35.92,37,36.09,37.08,36,37.29Z"/><path class="cls-2" d="M36,37.29c-.95-.74-1.89-1.49-2.86-2.22-.72-.54-1.41-1.11-2.12-1.67l-.13-.1a7.92,7.92,0,0,0,2.36-2.56,8.37,8.37,0,0,0,.82-2.17c0-.23,0-.29-.24-.29H25.64c-.24,0-.33-.06-.33-.32,0-1.9,0-3.8,0-5.71,0-.24.09-.3.31-.3H40.27c.22,0,.33.05.36.28a17.93,17.93,0,0,1-1.7,11.36,13.78,13.78,0,0,1-2.73,3.57A.61.61,0,0,1,36,37.29Z"/><path class="cls-2" d="M16.18,28.22c-.24,0-.36.2-.53.32l-2.71,2.1-2.08,1.63A14.84,14.84,0,0,1,9.63,29a15.47,15.47,0,0,1-.52-4.12,16.35,16.35,0,0,1,1.64-7l.11-.19,3.74,2.92,1.31,1c.08.05.14.16.27.12a9.8,9.8,0,0,0-.24,5.65C16,27.69,16.09,28,16.18,28.22Z"/></g></g></g></svg>