<svg xmlns="http://www.w3.org/2000/svg" width="160.999" height="33.066" viewBox="0 0 160.999 33.066">
  <g id="Grupo_4" data-name="Grupo 4" transform="translate(-80.001 -180.648)">
    <path id="Trazado_12" data-name="Trazado 12" d="M11.682,320.3a11.606,11.606,0,0,1-4.472-.871,11.488,11.488,0,0,1-6.349-6.349A11.605,11.605,0,0,1,0,308.613V287.27H5.592v21.343a5.955,5.955,0,0,0,.476,2.358,6.086,6.086,0,0,0,1.306,1.95,6.122,6.122,0,0,0,6.671,1.3,6,6,0,0,0,1.95-1.3,6.149,6.149,0,0,0,1.3-1.95,5.955,5.955,0,0,0,.454-2.358V287.27H23.37v21.343a11.606,11.606,0,0,1-.871,4.472,11.6,11.6,0,0,1-6.358,6.34,11.628,11.628,0,0,1-4.458.871Z" transform="translate(80.001 -106.581)" fill="#fff"/>
    <path id="Trazado_13" data-name="Trazado 13" d="M86.425,287.46v31.991H80.833v-22.3l-7,9.941L66.746,297.07v22.381h-5.6V287.46h5.637L73.83,297.4l7-9.941Z" transform="translate(46.583 -106.685)" fill="#fff"/>
    <path id="Trazado_14" data-name="Trazado 14" d="M135.761,287.46h5.923l12.472,32.109h-6.009l-2.721-7.043H132.273l-2.689,7.043H123.62ZM134.4,306.934h8.871l-4.535-11.56Z" transform="translate(12.445 -106.685)" fill="#fff"/>
    <path id="Trazado_15" data-name="Trazado 15" d="M209.126,287.534v5.442h-7.914v26.558h-5.574V292.962H187.87V287.52Z" transform="translate(-22.667 -106.718)" fill="#fff"/>
    <path id="Trazado_16" data-name="Trazado 16" d="M252.556,319.208a15.978,15.978,0,0,1-6.05-1.156,15.546,15.546,0,0,1-5.3-3.524,16.327,16.327,0,0,1-3.524-5.3,16.531,16.531,0,0,1-.871-2.943,16.23,16.23,0,0,1-.29-3.066,16.843,16.843,0,0,1,1.161-6.05,15.873,15.873,0,0,1,3.524-5.261,15.547,15.547,0,0,1,5.3-3.524,15.876,15.876,0,0,1,17.361,3.524l-3.977,3.937a10.018,10.018,0,0,0-3.438-2.268,10.68,10.68,0,0,0-7.832,0,10.018,10.018,0,0,0-3.438,2.268,10.462,10.462,0,0,0-2.281,11.374,10.431,10.431,0,0,0,2.268,3.374,10.254,10.254,0,0,0,3.356,2.24,10.471,10.471,0,0,0,4.018.785,10.231,10.231,0,0,0,7.333-3.025l3.977,3.937a15.85,15.85,0,0,1-11.311,4.68Z" transform="translate(-49.253 -106.532)" fill="#fff"/>
    <path id="Trazado_17" data-name="Trazado 17" d="M327.129,287.55v31.987h-5.587V305.119H309.61v14.417H304V287.55h5.592v12h11.932V287.573Z" transform="translate(-86.129 -106.734)" fill="#fff"/>
  </g>
</svg>
