<?xml version="1.0" encoding="utf-8"?>
<!-- Generator: Adobe Illustrator 24.2.1, SVG Export Plug-In . SVG Version: 6.00 Build 0)  -->
<svg version="1.1" id="Capa_1" xmlns="http://www.w3.org/2000/svg" xmlns:xlink="http://www.w3.org/1999/xlink" x="0px" y="0px"
	 viewBox="0 0 24 24" style="enable-background:new 0 0 24 24;" xml:space="preserve">
<style type="text/css">
	.st0{fill:#FFFFFF;}
	.st1{fill:none;}
</style>
<g>
	<g>
		<path class="st0" d="M12,0C5.3,0,0,5.4,0,12s5.4,12,12,12c6.7,0,12-5.4,12-12S18.7,0,12,0z M12,3.5c2.2,0,4,1.8,4,4s-1.8,4-4,4
			s-4-1.8-4-4C8,5.3,9.8,3.5,12,3.5z M12,20.9c-2.2,0-4.2-0.8-5.7-2.1c-0.4-0.3-0.6-0.8-0.6-1.3c0-2.2,1.8-4,4-4h4.6
			c2.2,0,4,1.8,4,4c0,0.6-0.3,1-0.6,1.3C16.2,20.1,14.2,20.9,12,20.9z"/>
	</g>
	<rect class="st1" width="24" height="24"/>
</g>
</svg>
