<?xml version="1.0" encoding="utf-8"?>
<!-- Generator: Adobe Illustrator 24.0.2, SVG Export Plug-In . SVG Version: 6.00 Build 0)  -->
<svg version="1.1" id="Capa_1" xmlns="http://www.w3.org/2000/svg" xmlns:xlink="http://www.w3.org/1999/xlink" x="0px" y="0px"
	 viewBox="0 0 24 24" style="enable-background:new 0 0 24 24;" xml:space="preserve">
<style type="text/css">
	.st0{fill:none;}
	.st1{fill:none;stroke:#6457E3;stroke-miterlimit:10;}
	.st2{fill:none;stroke:#6457E3;stroke-width:0.5;stroke-linejoin:round;stroke-miterlimit:10;}
	.st3{fill:none;stroke:#6457E3;stroke-width:0.5;stroke-linecap:round;stroke-linejoin:round;stroke-miterlimit:10;}
</style>
<rect class="st0" width="24" height="24"/>
<g>
	<circle class="st1" cx="12" cy="12" r="10.7"/>
	<polygon class="st2" points="6,3.5 4,6.8 5.69,8.57 9.6,6.46 10.03,3.2 	"/>
	<polygon class="st2" points="5.85,13.16 3.65,15.36 6.21,19.35 9.76,19.15 9.6,15.45 	"/>
	<polygon class="st2" points="13.36,8.3 13.36,12.79 17.41,14.57 19.76,10.95 17.57,7.06 	"/>
	<polyline class="st2" points="13.36,1.67 17.41,4.28 18.98,3.92 	"/>
	<polyline class="st2" points="14,22.7 13.81,20.7 17.4,18.48 20.34,18.7 	"/>
	<polyline class="st2" points="22.58,13.6 21.76,11.52 22.58,10.39 	"/>
	<line class="st3" x1="1.8" y1="14.9" x2="3.65" y2="15.36"/>
	<line class="st3" x1="5.7" y1="12.6" x2="5.7" y2="9.3"/>
	<line class="st3" x1="10.43" y1="6.7" x2="12.74" y2="8.01"/>
	<line class="st3" x1="10.76" y1="2.81" x2="12.41" y2="2.11"/>
	<line class="st3" x1="17.41" y1="4.78" x2="17.4" y2="6.46"/>
	<line class="st3" x1="21.76" y1="11.52" x2="20.39" y2="11.29"/>
	<line class="st3" x1="17.41" y1="15.36" x2="17.41" y2="17.76"/>
	<line class="st3" x1="12.64" y1="13.25" x2="10.2" y2="14.9"/>
	<line class="st3" x1="10.43" y1="19.56" x2="12.89" y2="20.48"/>
</g>
</svg>
