<?xml version="1.0" encoding="utf-8"?>
<!-- Generator: Adobe Illustrator 23.0.6, SVG Export Plug-In . SVG Version: 6.00 Build 0)  -->
<svg version="1.1" id="Capa_1" xmlns="http://www.w3.org/2000/svg" xmlns:xlink="http://www.w3.org/1999/xlink" x="0px" y="0px"
	 viewBox="0 0 24 24" style="enable-background:new 0 0 24 24;" xml:space="preserve">
<style type="text/css">
	.st0{fill:none;}
	.st1{fill:url(#SVGID_1_);}
</style>
<rect class="st0" width="24" height="24"/>
<g>
	<g>
		<linearGradient id="SVGID_1_" gradientUnits="userSpaceOnUse" x1="6.3789" y1="16.3043" x2="17.6211" y2="5.0621">
			<stop  offset="0" style="stop-color:#0271C4"/>
			<stop  offset="1" style="stop-color:#0CECF2"/>
		</linearGradient>
		<path class="st1" d="M12,2.3c-3.9,0-7,3.1-7,7c0,4.8,6.3,11.8,6.5,12.1c0.3,0.3,0.7,0.3,0.9,0c0.3-0.3,6.5-7.3,6.5-12.1
			C19,5.5,15.9,2.3,12,2.3z M12,12.9c-1.9,0-3.5-1.6-3.5-3.5s1.6-3.5,3.5-3.5s3.5,1.6,3.5,3.5S13.9,12.9,12,12.9z"/>
	</g>
</g>
</svg>
