<?xml version="1.0" encoding="utf-8"?>
<!-- Generator: Adobe Illustrator 23.0.6, SVG Export Plug-In . SVG Version: 6.00 Build 0)  -->
<svg version="1.1" id="Capa_1" xmlns="http://www.w3.org/2000/svg" xmlns:xlink="http://www.w3.org/1999/xlink" x="0px" y="0px"
	 viewBox="0 0 24 24" style="enable-background:new 0 0 24 24;" xml:space="preserve">
<style type="text/css">
	.st0{fill:none;}
	.st1{fill:none;stroke:#0CECF2;stroke-width:0.75;stroke-miterlimit:10;}
</style>
<rect class="st0" width="24" height="24"/>
<g>
	<circle class="st1" cx="14.5" cy="13.1" r="2.8"/>
	<path class="st1" d="M21.1,13.1c0,1.2-0.3,2.3-0.9,3.3c-1.1,1.9-3.2,3.2-5.6,3.2c-3.6,0-6.5-2.9-6.5-6.5H0.8V6.6h13.8
		C18.2,6.6,21.1,9.5,21.1,13.1z"/>
	<path class="st1" d="M0.7,6.6L3,4.4H16c0.2,0,0.5,0,0.7,0c3.6,0,6.5,2.9,6.5,6.5c0,2.4-1.3,4.5-3.2,5.6"/>
	<g>
		<line class="st1" x1="11.2" y1="6.6" x2="13.4" y2="4.5"/>
	</g>
	<g>
		<line class="st1" x1="14" y1="6.6" x2="16.2" y2="4.5"/>
	</g>
</g>
</svg>
