<svg xmlns="http://www.w3.org/2000/svg" viewBox="0 0 1843 390.01"><defs><style>.cls-1,.cls-2,.cls-4,.cls-5{fill:#fff;}.cls-1{opacity:0.8;}.cls-2{opacity:0.95;}.cls-3{opacity:0.65;}.cls-5{opacity:0.5;}</style></defs><title>logo_wordmark_mono_white</title><g id="Capa_2" data-name="Capa 2"><g id="Capa_1-2" data-name="Capa 1"><path class="cls-1" d="M780.93,135.89a144.85,144.85,0,0,1,.77,14.92A142.47,142.47,0,0,1,539.82,252.92c-.45-.42-.89-.86-1.33-1.3L332.89,57.12A195,195,0,0,0,0,195a195.7,195.7,0,0,0,9.07,59.11,144.71,144.71,0,0,1-.76-14.92,142.48,142.48,0,0,1,188.3-134.94,140.5,140.5,0,0,1,53.58,32.84c.45.42.89.86,1.33,1.3l205.6,194.5a195,195,0,0,0,275.77,0h0a195.52,195.52,0,0,0,48-197Z"/><path class="cls-2" d="M592.9,275c1.23.45,2.46.89,3.7,1.3a133.6,133.6,0,0,0,42.93,7.13,131.73,131.73,0,0,0,93.36-38.91h0a132.49,132.49,0,0,0,0-187.38,195,195,0,0,0-38.18-29.75L661.28,60.8a142.48,142.48,0,0,1-8.36,189.39c-.42.44-.85.88-1.29,1.31s-1,1-1.49,1.46A79.6,79.6,0,0,1,595,275Z"/><g class="cls-3"><polygon class="cls-4" points="336.42 336.42 336.42 336.42 336.42 336.42 336.42 336.42"/><path class="cls-4" d="M150.48,106.6A132.57,132.57,0,0,0,57.12,332.89,193.73,193.73,0,0,0,195,390a195.68,195.68,0,0,0,59.16-9.09,142.85,142.85,0,0,1-60.76-6.76,142.51,142.51,0,0,1-56.32-234.34c.44-.47.9-.93,1.36-1.38s.94-.95,1.43-1.4A79.57,79.57,0,0,1,195,115q1,0,2.1,0c-1.22-.45-2.45-.89-3.7-1.31A133.53,133.53,0,0,0,150.48,106.6Z"/></g><path class="cls-5" d="M145.51,332.89a132.42,132.42,0,0,0,183.78,3.47L247.92,255A80,80,0,0,1,115,195c0-.59,0-1.18,0-1.78C97.78,240.28,108,295.37,145.51,332.89Z"/><path class="cls-4" d="M880.73,291.34,949,98.67h53l68.22,192.67H1019L1006.24,254H945.48l-13.06,37.31Zm75.68-81.55h38.11L975.6,148.23Z"/><path class="cls-4" d="M1252.34,291.34h-53.17l-28-66.36H1144v66.36h-51.83V98.67h87.41q25,0,40.31,8.26t22.18,22.32a70.28,70.28,0,0,1,6.93,31.51q0,22.11-8.53,34.91a70.11,70.11,0,0,1-22,21.05Zm-78.61-105a20.77,20.77,0,0,0,16.59-7.86,26.21,26.21,0,0,0,6.59-17.19,23.26,23.26,0,0,0-7.19-17.12q-7.2-7.12-16-7.13H1144v49.3Z"/><path class="cls-4" d="M1276.32,291.34V267.62l90.74-126.32h-82.35V98.67h157v22.65l-92.61,126.85h91v43.17Z"/><path class="cls-4" d="M1555.6,294Q1527,294,1506,281.81a82.83,82.83,0,0,1-32.44-34.31q-11.46-22.11-11.46-52.1T1473.72,143a84.57,84.57,0,0,1,32.71-34.64Q1527.48,96,1555.6,96t48.9,12.33A84.49,84.49,0,0,1,1637,143q11.6,22.32,11.59,52.43,0,29.85-11.39,52a82.53,82.53,0,0,1-32.31,34.38Q1584,294,1555.6,294Zm0-41.57a34.11,34.11,0,0,0,19-5.4q8.33-5.39,13.06-17.72t4.73-33.11q0-21.45-4.73-34.31t-13.06-18.59a34.32,34.32,0,0,0-38,0q-8.33,5.73-13.12,18.59t-4.8,34.31q0,20.79,4.8,33.11T1536.61,247A34.12,34.12,0,0,0,1555.6,252.43Z"/><path class="cls-4" d="M1843,98.67l-65,192.67h-57l-65-192.67h48.9l44.63,131.91L1794,98.67Z"/></g></g></svg>