<?xml version="1.0" encoding="utf-8"?>
<!-- Generator: Adobe Illustrator 24.0.2, SVG Export Plug-In . SVG Version: 6.00 Build 0)  -->
<svg version="1.1" id="Capa_1" xmlns="http://www.w3.org/2000/svg" xmlns:xlink="http://www.w3.org/1999/xlink" x="0px" y="0px"
	 viewBox="0 0 250 250" style="enable-background:new 0 0 250 250;" xml:space="preserve">
<style type="text/css">
	.st0{fill:none;}
	.st1{fill:#FFFFFF;}
	.st2{opacity:0.2;clip-path:url(#SVGID_2_);}
	.st3{fill:url(#Nueva_muestra_de_motivo_5);}
</style>
<pattern  x="-125" y="375" width="9" height="6" patternUnits="userSpaceOnUse" id="Nueva_muestra_de_motivo_5" viewBox="1.4 -7.4 9 6" style="overflow:visible;">
	<g>
		<rect x="1.4" y="-7.4" class="st0" width="9" height="6"/>
		<circle class="st1" cx="10.4" cy="-1.4" r="1.4"/>
		<circle class="st1" cx="1.4" cy="-1.4" r="1.4"/>
		<circle class="st1" cx="10.4" cy="-7.4" r="1.4"/>
		<circle class="st1" cx="5.9" cy="-4.4" r="1.4"/>
		<circle class="st1" cx="1.4" cy="-7.4" r="1.4"/>
	</g>
</pattern>
<g>
	<defs>
		<rect id="SVGID_1_" width="250" height="250"/>
	</defs>
	<clipPath id="SVGID_2_">
		<use xlink:href="#SVGID_1_"  style="overflow:visible;"/>
	</clipPath>
	<g class="st2">
		<g>
			<rect x="102.8" y="115.6" class="st1" width="1.5" height="1.8"/>
			<rect x="108.6" y="115.6" class="st1" width="1.5" height="1.8"/>
			<rect x="120.4" y="115.6" class="st1" width="1.5" height="1.8"/>
			<rect x="125.9" y="115.6" class="st1" width="1.5" height="1.8"/>
			<rect x="131.8" y="115.6" class="st1" width="1.5" height="1.8"/>
			<g>
				<polygon class="st1" points="137.3,108.8 136.9,108.5 136.4,108.3 135.7,108 135.2,107.8 134.5,107.7 134,107.6 133.2,107.4 
					131.9,107.2 130.3,106.7 129.9,106.6 127.8,105.8 126.5,105.2 124.3,104.2 122.9,103.6 120.1,102.4 117.2,101 115.8,100.4 
					115.4,100.2 115.1,100.1 114.8,100 114.6,100.1 114.5,100.1 114.3,100.3 113.6,100.8 112.5,101.7 111.3,102.7 110.9,103 
					110.1,103.6 109.3,104.1 108.3,104.4 107.5,104.6 106.4,104.6 105.6,104.6 104.3,104.2 103.6,103.8 102.7,103.2 102.1,102.6 
					101.5,102 101,101.8 100.5,101.8 99.9,102 99.7,102.1 99.5,102.4 99.3,102.7 99.2,103.1 99.1,103.7 99,105.1 98.8,106.7 
					98.6,108.4 98.4,109.7 98.3,110.6 98.2,111.1 98.2,111.8 98.2,112.2 98.2,112.7 98.4,113.3 98.6,113.7 98.8,114 99,114.4 
					99.5,114.8 99.8,115.1 100.3,115.3 100.8,115.5 101.3,115.6 101.8,115.7 105.7,115.7 108.7,115.7 119.1,105.3 121.9,106.3 
					112.5,115.7 117.2,115.7 125.5,107.4 128.1,108.2 120.6,115.7 134.8,115.7 135.3,115.7 136,115.6 136.6,115.4 137.3,115 
					137.6,114.7 138,114.3 138.3,113.9 138.6,113.3 138.8,112.6 138.9,112.2 138.9,111.8 138.8,111.5 138.7,111 138.6,110.6 
					138.4,110.1 138.1,109.7 137.7,109.2 				"/>
			</g>
			<g>
				<path class="st1" d="M120,104.2l8.5,3.6l-5,6.8h-13.8L120,104.2 M119.7,102.9l-12.8,12.8h17.2l6.3-8.4L119.7,102.9L119.7,102.9z
					"/>
			</g>
		</g>
		<g>
			<path class="st1" d="M115.8,80c-0.8,0-1.6-0.1-2.4-0.2c-4-0.6-7.4-2.8-9.8-6.1s-3.3-7.2-2.6-11.2l0,0c1.3-8.2,9.1-13.8,17.3-12.4
				c8.2,1.3,13.8,9.1,12.4,17.3c-0.6,4-2.8,7.4-6.1,9.8C121.9,79,118.9,80,115.8,80z M102.3,62.8c-1.2,7.4,3.9,14.4,11.3,15.6
				c7.4,1.2,14.4-3.9,15.6-11.3c1.2-7.4-3.9-14.4-11.3-15.6C110.5,50.3,103.5,55.4,102.3,62.8L102.3,62.8z"/>
			<path class="st1" d="M104.8,55.7h5.5c0.5,0,1-0.3,1.3-0.7l2.5-4.3C114.1,50.6,108.7,51.4,104.8,55.7z"/>
			<path class="st1" d="M126.9,55.7h-5.5c-0.5,0-1-0.3-1.3-0.7l-2.5-4.3C117.7,50.6,123,51.4,126.9,55.7z"/>
			<path class="st1" d="M126.9,74.3h-5.5c-0.5,0-1,0.3-1.3,0.7l-2.5,4.3C117.7,79.3,123,78.6,126.9,74.3z"/>
			<path class="st1" d="M104.8,74.3h5.5c0.5,0,1,0.3,1.3,0.7l2.5,4.3C114.1,79.3,108.7,78.6,104.8,74.3z"/>
			<path class="st1" d="M117.9,60.7h-4.3c-0.2,0-0.4,0.1-0.5,0.3l-2.1,3.7c-0.1,0.2-0.1,0.4,0,0.6l2.1,3.7c0.1,0.2,0.3,0.3,0.5,0.3
				h4.3c0.2,0,0.4-0.1,0.5-0.3l2.1-3.7c0.1-0.2,0.1-0.4,0-0.6l-2.1-3.7C118.3,60.8,118.1,60.7,117.9,60.7z"/>
			<path class="st1" d="M103,58.4l2.5,6.1c0.1,0.4,0.1,0.8,0,1.1l-2.5,6.1C103,71.6,99.4,65.6,103,58.4z"/>
			<path class="st1" d="M128.5,58.4l-2.5,6.1c-0.1,0.4-0.1,0.8,0,1.1l2.5,6.1C128.5,71.6,132.1,65.6,128.5,58.4z"/>
		</g>
		<g>
			<g>
				<g>
					<path class="st1" d="M62.1,206.4c0.5,0.9,2,3.6,4.2,3.9v19.5h-8.1v-23.4L62.1,206.4 M62.4,205.9h-4.6v24.3h9v-20.4
						c0,0-0.1,0-0.1,0C64.2,209.9,62.4,205.9,62.4,205.9L62.4,205.9z"/>
				</g>
				<polygon class="st1" points="62.8,230.2 61.9,230.2 61.9,205.9 62.8,207.2 				"/>
				<rect x="59.5" y="205.9" class="st1" width="0.9" height="24.3"/>
				<polygon class="st1" points="65,230.2 64.1,230.2 64.1,208.9 65,209.5 				"/>
				<polygon class="st1" points="57.8,214.2 57.8,205.9 49.4,213.6 53.6,218.1 				"/>
			</g>
			<g>
				<g>
					<path class="st1" d="M75.3,206.4v23.4h-8.1v-19.5c2.2-0.3,3.8-3,4.2-3.9L75.3,206.4 M75.7,205.9h-4.6c0,0-1.8,3.9-4.3,3.9
						c0,0-0.1,0-0.1,0v20.4h9L75.7,205.9L75.7,205.9L75.7,205.9z"/>
				</g>
				<polygon class="st1" points="71.6,230.2 70.7,230.2 70.7,207.2 71.6,205.9 				"/>
				<rect x="73.2" y="205.9" class="st1" width="0.9" height="24.3"/>
				<polygon class="st1" points="69.4,230.2 68.5,230.2 68.5,209.5 69.4,208.9 				"/>
				<polygon class="st1" points="75.7,214.2 75.7,205.9 84.1,213.6 79.9,218.1 				"/>
			</g>
		</g>
		<g>
			<polygon class="st1" points="132.5,203.6 136.9,199.5 136.9,190.6 128,198.8 			"/>
			<polygon class="st1" points="156.1,190.6 156.1,199.5 160.6,203.6 165.1,198.8 			"/>
			<g>
				<path class="st1" d="M146.4,201.4c-0.6,0-1,0.5-1,1.4c0,0.6,0.3,1.3,1.1,1.3c0.5,0,0.8-0.2,1-0.4c0.1-0.1,0.1-0.3,0.1-0.6
					C147.5,202.2,147.2,201.4,146.4,201.4z"/>
				<path class="st1" d="M151.2,190.6c0,0-2,2.9-4.7,2.8c-2.7,0.1-4.7-2.8-4.7-2.8h-4.9v25.9h9.6h9.6v-25.9H151.2z M148.5,207.8
					c-1,0.9-2.3,1.3-3.9,1.3c-0.3,0-0.7,0-0.9,0v-2c0.3,0,0.5,0,0.9,0c0.6,0,1.3-0.2,1.8-0.4c0.6-0.3,1-0.9,1.2-1.4l0,0
					c-0.4,0.3-0.9,0.5-1.7,0.5c-1.5,0-3-1-3-2.9c0-1.9,1.5-3.4,3.7-3.4c2.6,0,3.7,2,3.7,4.1C150.2,205.5,149.6,206.9,148.5,207.8z"
					/>
			</g>
		</g>
		<g>
			<rect x="200.3" y="-5.8" class="st1" width="9.5" height="22.3"/>
			<path class="st1" d="M165.4,5.3c0,5.3,4,9.7,9.2,10.3V-5C169.4-4.4,165.4,0,165.4,5.3z"/>
			<path class="st1" d="M186.2,5.3c0-5.3-4-9.7-9.2-10.3v20.6C182.2,15,186.2,10.6,186.2,5.3z"/>
			<rect x="141.7" y="-5.8" class="st1" width="9.5" height="22.3"/>
			<path class="st1" d="M162.9,5.3c0-6.7,5.1-12.2,11.6-12.8v-7.5h-32.8v6.7h12v27.1h-12v6.7h32.8v-7.5C168,17.5,162.9,12,162.9,5.3
				z"/>
			<path class="st1" d="M188.6,5.3c0,6.7-5.1,12.2-11.6,12.8v7.5h32.8v-6.7h-12V-8.2h12v-6.7H177v7.5C183.5-6.9,188.6-1.4,188.6,5.3
				z"/>
		</g>
		<g>
			<rect x="200.3" y="244.2" class="st1" width="9.5" height="22.3"/>
			<path class="st1" d="M165.4,255.3c0,5.3,4,9.7,9.2,10.3V245C169.4,245.6,165.4,250,165.4,255.3z"/>
			<path class="st1" d="M186.2,255.3c0-5.3-4-9.7-9.2-10.3v20.6C182.2,265,186.2,260.6,186.2,255.3z"/>
			<rect x="141.7" y="244.2" class="st1" width="9.5" height="22.3"/>
			<path class="st1" d="M162.9,255.3c0-6.7,5.1-12.2,11.6-12.8v-7.5h-32.8v6.7h12v27.1h-12v6.7h32.8v-7.5
				C168,267.5,162.9,262,162.9,255.3z"/>
			<path class="st1" d="M188.6,255.3c0,6.7-5.1,12.2-11.6,12.8v7.5h32.8v-6.7h-12v-27.1h12v-6.7H177v7.5
				C183.5,243.1,188.6,248.6,188.6,255.3z"/>
		</g>
		<g>
			<polygon class="st1" points="189.4,169.7 187,169.7 187,145.9 140.9,145.9 140.9,169.7 138.5,169.7 138.5,143.4 189.4,143.4 			
				"/>
			<polygon class="st1" points="181.7,167.5 180.7,167.5 180.7,150.2 147.2,150.2 147.2,167.5 146.2,167.5 146.2,149.1 181.7,149.1 
							"/>
			
				<rect x="142.7" y="142.9" transform="matrix(0.5816 -0.8135 0.8135 0.5816 -59.7869 178.0697)" class="st1" width="1" height="8.6"/>
			
				<rect x="180.4" y="146.6" transform="matrix(0.8133 -0.5819 0.5819 0.8133 -51.1352 134.9571)" class="st1" width="8.6" height="1"/>
			<path class="st1" d="M151.2,166.4l-4.6-8.5l4.6-8.5l4.6,8.5L151.2,166.4z M147.5,157.9l3.8,7l3.8-7l-3.8-7L147.5,157.9z"/>
			<path class="st1" d="M159.8,166.4l-4.6-8.5l4.6-8.5l4.6,8.5L159.8,166.4z M156,157.9l3.8,7l3.8-7l-3.8-7L156,157.9z"/>
			<path class="st1" d="M168.2,166.4l-4.6-8.5l4.6-8.5l4.6,8.5L168.2,166.4z M164.4,157.9l3.8,7l3.8-7l-3.8-7L164.4,157.9z"/>
			<path class="st1" d="M176.5,166.4l-4.6-8.5l4.6-8.5l4.6,8.5L176.5,166.4z M172.7,157.9l3.8,7l3.8-7l-3.8-7L172.7,157.9z"/>
		</g>
		<g>
			<rect x="224.6" y="48.8" class="st1" width="0.9" height="18.3"/>
			<path class="st1" d="M226.7,58.4v-9.6c0,0,4.9-2.4,8.7,1.9c0,0,3.9,0.9,6.2-0.9v9.4c0,0-5.6,2.4-7.4-0.5
				C234.1,58.7,230.3,55.7,226.7,58.4z"/>
		</g>
		<g>
			<path class="st1" d="M94.6,27.3c-4.6,0-8.4-3.8-8.4-8.4s3.8-8.4,8.4-8.4s8.4,3.8,8.4,8.4S99.2,27.3,94.6,27.3z M94.6,11.6
				c-4,0-7.3,3.3-7.3,7.3s3.3,7.3,7.3,7.3s7.3-3.3,7.3-7.3S98.6,11.6,94.6,11.6z"/>
			<rect x="92.6" y="8.8" class="st1" width="4" height="1"/>
			<rect x="94.1" y="9.3" class="st1" width="1" height="1.7"/>
			<path class="st1" d="M100.9,18.9h-6.3v-6.3C98.1,12.6,100.9,15.4,100.9,18.9z"/>
			<polyline class="st1" points="99.1,12.5 100.4,11.2 101.4,12.2 100.2,13.4 			"/>
		</g>
		<g>
			<path class="st1" d="M57.7,100.8c0.1-0.1,0.2-0.2,0.2-0.4l0.1-2.7c0-0.1,0-0.3-0.1-0.4c-0.1-0.1-0.2-0.2-0.4-0.2L50,96.9l0,3.8
				l7.3,0.2C57.5,100.9,57.6,100.9,57.7,100.8z M56.1,99.9c-0.6,0.1-1.2-0.2-1.3-0.8c-0.1-0.6,0.2-1.2,0.8-1.3s1.2,0.2,1.3,0.8
				C57.1,99.2,56.7,99.8,56.1,99.9z"/>
			<path class="st1" d="M70.8,83L70,82.3c-0.8-0.6-1.9-0.6-2.6,0.2l-1.7,2c-0.2,0.2-0.4,0.1-0.4-0.2l0.3-12.3c0-0.2,0-0.3-0.1-0.5
				c-0.2-0.8-0.9-1.4-1.7-1.4c-1,0-1.8,0.8-1.9,1.8l-0.2,8.3c-0.4,0.1-0.6-0.1-0.6-0.4l0.2-9.7c0-0.2,0-0.3-0.1-0.5
				c-0.2-0.8-0.9-1.4-1.8-1.4c-1,0-1.8,0.9-1.8,1.9L57.6,79c-0.1,0.1-0.5,0.3-0.7,0l0.2-7.9c0-0.2,0-0.3-0.1-0.5
				c-0.2-0.8-0.9-1.4-1.7-1.4c-1,0-1.8,0.8-1.9,1.8l-0.2,8.7c-0.2,0.1-0.5,0.3-0.8,0l0.1-5.5c0-0.2,0-0.3-0.1-0.5
				c-0.2-0.8-0.9-1.4-1.8-1.4c-1,0-1.8,0.9-1.8,1.9l-0.3,11.7l0,0c-0.2,1.1-0.2,2.3,0.1,3.5c0,0.2,0.1,0.3,0.1,0.5l0.1,0.2
				c0.1,0.4,0.3,1.4,0.8,2.5l1.1,2.2c0,0,0,0,0,0c-0.5,0.2-0.9,0.6-0.9,1.2l7.4,0.2c0.3,0,0.7,0.2,0.9,0.4c0.2,0.3,0.4,0.6,0.4,0.9
				l-0.1,2.7c0,0.3-0.2,0.7-0.4,0.9c-0.2,0.2-0.4,0.3-0.6,0.3c-0.1,0-0.2,0-0.3,0l-7.2-0.2c0.2,0.6,0.7,1.1,1.4,1.1l10.1,0
				c0.8,0,1.5-0.7,1.5-1.5l0-4.8c0-0.4-0.1-0.7-0.4-1c0,0,0,0,0,0l1-1.1c0.1-0.1,0.1-0.1,0.2-0.2l0.5-0.6l0,0l6.6-7.9
				C71.7,84.8,71.6,83.6,70.8,83z M58.6,92.8c-3,0.7-6-1.1-6.7-4.1c-0.7-3,1.1-6,4.1-6.7c3-0.7,6,1.1,6.7,4.1
				C63.4,89.2,61.6,92.1,58.6,92.8z"/>
		</g>
		<g>
			<g>
				<path class="st1" d="M210.6,203.6l2.5,13.4l-9.6,1.8l-2.5-13.4L210.6,203.6 M211.2,202.4C211.2,202.4,211.1,202.4,211.2,202.4
					l-11,2c-0.2,0-0.3,0.2-0.3,0.4l2.7,14.8c0,0.2,0.2,0.3,0.3,0.3c0,0,0.1,0,0.1,0l11-2c0.2,0,0.3-0.2,0.3-0.4l-2.7-14.8
					C211.5,202.6,211.4,202.4,211.2,202.4L211.2,202.4z"/>
			</g>
			<path class="st1" d="M222.5,202.7l-3.4,13.9c-0.1,0.4-0.5,0.6-0.9,0.5l-3.2-0.8l-2.7-14.6c-0.1-0.4-0.4-0.6-0.8-0.6l-0.9,0.2
				l0.4-1.5c0.1-0.4,0.5-0.6,0.9-0.5l10.1,2.5C222.3,201.9,222.6,202.3,222.5,202.7z"/>
		</g>
		<g>
			<g>
				
					<rect x="196.1" y="97.8" transform="matrix(0.7145 -0.6997 0.6997 0.7145 -18.9276 168.302)" class="st1" width="1.3" height="19.1"/>
				<path class="st1" d="M206.3,111.2l-13.2-13.5c-0.3-0.3-0.3-0.7,0-0.9l1.4-1.4c0.1-0.1,0.3-0.2,0.5-0.2h14.9v1.3h-14.6l-0.8,0.8
					l12.8,13L206.3,111.2z"/>
				<rect x="196.7" y="99.7" class="st1" width="13.1" height="1.3"/>
			</g>
			<g>
				
					<rect x="213.3" y="106.7" transform="matrix(0.6999 -0.7142 0.7142 0.6999 -9.7814 191.4023)" class="st1" width="19.1" height="1.3"/>
				<path class="st1" d="M213.3,111.2l-1-0.9l12.8-13l-0.8-0.8h-14.6v-1.3h14.9c0.2,0,0.4,0.1,0.5,0.2l1.4,1.4
					c0.3,0.3,0.3,0.7,0,0.9L213.3,111.2z"/>
				<rect x="209.8" y="99.7" class="st1" width="13.1" height="1.3"/>
			</g>
			<path class="st1" d="M209.8,109.3c-4.2,0-7.7,3.5-7.7,7.8s3.4,7.8,7.7,7.8s7.7-3.5,7.7-7.8S214.1,109.3,209.8,109.3z
				 M211.2,121.7h-2.2v-6.5h0l-1.7,0.8l-0.4-1.8l2.4-1.1h1.9L211.2,121.7L211.2,121.7L211.2,121.7z"/>
		</g>
		<g>
			<path class="st1" d="M2.8,128c-1.4,0-2.5-1.1-2.5-2.5c0-1.4,1.1-2.5,2.5-2.5s2.5,1.1,2.5,2.5C5.3,126.9,4.2,128,2.8,128z
				 M2.8,123.9c-0.9,0-1.6,0.7-1.6,1.6c0,0.9,0.7,1.6,1.6,1.6s1.6-0.7,1.6-1.6C4.4,124.7,3.7,123.9,2.8,123.9z"/>
			<path class="st1" d="M14,137.2c-1.4,0-2.5-1.1-2.5-2.5s1.1-2.5,2.5-2.5c1.4,0,2.5,1.1,2.5,2.5S15.4,137.2,14,137.2z M14,133.1
				c-0.9,0-1.6,0.7-1.6,1.6s0.7,1.6,1.6,1.6s1.6-0.7,1.6-1.6S14.9,133.1,14,133.1z"/>
			<path class="st1" d="M6.2,137.5c-0.1,0-0.2,0-0.2-0.1c-0.2-0.1-0.3-0.4-0.2-0.6l4.2-7.3l-1.3,0.4c-0.2,0.1-0.5-0.1-0.5-0.3
				c-0.1-0.2,0.1-0.5,0.3-0.5l2.4-0.7c0.2-0.1,0.4,0,0.5,0.1c0.1,0.1,0.1,0.3,0,0.5l-4.8,8.3C6.5,137.4,6.4,137.5,6.2,137.5z"/>
			<path class="st1" d="M11.7,131.1c-0.2,0-0.4-0.1-0.4-0.3l-0.7-1.9c-0.1-0.2,0-0.5,0.3-0.6c0.2-0.1,0.5,0,0.6,0.3l0.7,1.9
				c0.1,0.2,0,0.5-0.3,0.6C11.8,131.1,11.8,131.1,11.7,131.1z"/>
			<path class="st1" d="M4.1,134.1c-0.1,0-0.3-0.1-0.4-0.2c-0.1-0.2-0.1-0.5,0.1-0.6l0.8-0.5c-2-1.6-1.9-4-1.9-4.2
				c0-0.2,0.2-0.4,0.5-0.4c0.2,0,0.4,0.2,0.4,0.5c0,0.1-0.1,2.4,2,3.8c0.1,0.1,0.2,0.2,0.2,0.4c0,0.2-0.1,0.3-0.2,0.4l-1.4,0.8
				C4.2,134.1,4.2,134.1,4.1,134.1z"/>
			<path class="st1" d="M5.4,133.3C5.4,133.3,5.4,133.3,5.4,133.3c-0.3,0-0.5-0.3-0.4-0.5l0.3-1.7c0-0.2,0.3-0.4,0.5-0.4
				c0.2,0,0.4,0.3,0.4,0.5L5.9,133C5.8,133.2,5.7,133.3,5.4,133.3z"/>
			<path class="st1" d="M15,126.6c-0.1,0-0.2,0-0.3-0.1l-2.7-2.6c-0.2-0.2-0.2-0.4,0-0.6c0.2-0.2,0.4-0.2,0.6,0l2.7,2.6
				c0.2,0.2,0.2,0.4,0,0.6C15.2,126.5,15.1,126.6,15,126.6z"/>
			<path class="st1" d="M12.3,126.6c-0.1,0-0.2,0-0.3-0.1c-0.2-0.1-0.2-0.4-0.1-0.6l2.3-2.9c0.1-0.2,0.4-0.2,0.6-0.1
				c0.2,0.1,0.2,0.4,0.1,0.6l-2.3,2.9C12.6,126.5,12.5,126.6,12.3,126.6z"/>
			<path class="st1" d="M20.5,145.5H-4.4v-30.5h8.2v1.9h8.3v-1.9h8.4V145.5z M-3.3,144.3h22.6v-28.2h-6.1v1.9H2.6v-1.9h-5.9V144.3z"
				/>
			<path class="st1" d="M10.9,116.2H5.2c-0.4,0-0.7-0.3-0.7-0.7v-0.6c0-0.4,0.3-0.7,0.7-0.7h5.7c0.4,0,0.7,0.3,0.7,0.7v0.6
				C11.6,115.8,11.3,116.2,10.9,116.2z"/>
		</g>
		<g>
			<path class="st1" d="M252.8,128c-1.4,0-2.5-1.1-2.5-2.5c0-1.4,1.1-2.5,2.5-2.5c1.4,0,2.5,1.1,2.5,2.5
				C255.3,126.9,254.2,128,252.8,128z M252.8,123.9c-0.9,0-1.6,0.7-1.6,1.6c0,0.9,0.7,1.6,1.6,1.6c0.9,0,1.6-0.7,1.6-1.6
				C254.4,124.7,253.7,123.9,252.8,123.9z"/>
			<path class="st1" d="M264,137.2c-1.4,0-2.5-1.1-2.5-2.5s1.1-2.5,2.5-2.5s2.5,1.1,2.5,2.5S265.4,137.2,264,137.2z M264,133.1
				c-0.9,0-1.6,0.7-1.6,1.6s0.7,1.6,1.6,1.6s1.6-0.7,1.6-1.6S264.9,133.1,264,133.1z"/>
			<path class="st1" d="M256.2,137.5c-0.1,0-0.2,0-0.2-0.1c-0.2-0.1-0.3-0.4-0.2-0.6l4.2-7.3l-1.3,0.4c-0.2,0.1-0.5-0.1-0.5-0.3
				c-0.1-0.2,0.1-0.5,0.3-0.5l2.4-0.7c0.2-0.1,0.4,0,0.5,0.1c0.1,0.1,0.1,0.3,0,0.5l-4.8,8.3C256.5,137.4,256.4,137.5,256.2,137.5z"
				/>
			<path class="st1" d="M261.7,131.1c-0.2,0-0.4-0.1-0.4-0.3l-0.7-1.9c-0.1-0.2,0-0.5,0.3-0.6c0.2-0.1,0.5,0,0.6,0.3l0.7,1.9
				c0.1,0.2,0,0.5-0.3,0.6C261.8,131.1,261.8,131.1,261.7,131.1z"/>
			<path class="st1" d="M254.1,134.1c-0.1,0-0.3-0.1-0.4-0.2c-0.1-0.2-0.1-0.5,0.1-0.6l0.8-0.5c-2-1.6-1.9-4-1.9-4.2
				c0-0.2,0.2-0.4,0.5-0.4c0.2,0,0.4,0.2,0.4,0.5c0,0.1-0.1,2.4,2,3.8c0.1,0.1,0.2,0.2,0.2,0.4s-0.1,0.3-0.2,0.4l-1.4,0.8
				C254.2,134.1,254.2,134.1,254.1,134.1z"/>
			<path class="st1" d="M255.4,133.3C255.4,133.3,255.4,133.3,255.4,133.3c-0.3,0-0.5-0.3-0.4-0.5l0.3-1.7c0-0.2,0.3-0.4,0.5-0.4
				c0.2,0,0.4,0.3,0.4,0.5l-0.3,1.7C255.8,133.2,255.7,133.3,255.4,133.3z"/>
			<path class="st1" d="M265,126.6c-0.1,0-0.2,0-0.3-0.1l-2.7-2.6c-0.2-0.2-0.2-0.4,0-0.6c0.2-0.2,0.4-0.2,0.6,0l2.7,2.6
				c0.2,0.2,0.2,0.4,0,0.6C265.2,126.5,265.1,126.6,265,126.6z"/>
			<path class="st1" d="M262.3,126.6c-0.1,0-0.2,0-0.3-0.1c-0.2-0.1-0.2-0.4-0.1-0.6l2.3-2.9c0.1-0.2,0.4-0.2,0.6-0.1
				c0.2,0.1,0.2,0.4,0.1,0.6l-2.3,2.9C262.6,126.5,262.5,126.6,262.3,126.6z"/>
			<path class="st1" d="M270.5,145.5h-24.9v-30.5h8.2v1.9h8.3v-1.9h8.4V145.5z M246.7,144.3h22.6v-28.2h-6.1v1.9h-10.6v-1.9h-5.9
				V144.3z"/>
			<path class="st1" d="M260.9,116.2h-5.7c-0.4,0-0.7-0.3-0.7-0.7v-0.6c0-0.4,0.3-0.7,0.7-0.7h5.7c0.4,0,0.7,0.3,0.7,0.7v0.6
				C261.6,115.8,261.3,116.2,260.9,116.2z"/>
		</g>
		<g>
			<path class="st1" d="M84.2,159.1c-0.3,0-0.7,0-1.1-0.1c-0.4-0.1-0.7-0.5-0.6-0.9c0.1-0.4,0.5-0.7,0.9-0.6
				c0.7,0.2,1.3,0.1,1.7-0.2c0.4-0.3,0.7-0.7,0.8-1l-1.7-2.2c-8.7-1.9-11-8.3-11.1-8.6l0-0.1v-7h7.4c0.4,0,0.8,0.4,0.8,0.8
				s-0.4,0.8-0.8,0.8h-5.8v5.2c0.3,0.9,2.6,6,10.2,7.5l0.3,0.1l2.5,3.3l-0.1,0.3c0,0.2-0.3,1.5-1.6,2.3
				C85.5,159,84.9,159.1,84.2,159.1z"/>
			<g>
				<path class="st1" d="M101.6,138.1c0.1,3.3-0.4,12.2-8.3,19.4l-0.3,0.3l-0.1,0.4c-0.1,0.2-1.4,4.3,1,7c0.4,0.6,2.2,2.6,5.3,2.8
					v1.2h1.6h0.8v12.6v1.6h1.6l0,0v1.9H91.9H80.6v-1.9l0,0h1.6v-1.6v-12.6H83h1.6V168c3.1-0.2,4.9-2.3,5.3-2.8c2.4-2.6,1.1-6.8,1-7
					l-0.1-0.4l-0.3-0.3c-8-7.2-8.4-16.1-8.3-19.4h9.7H101.6 M103.1,136.5H91.9H80.7c0,0-1.9,12.5,8.7,22.2c0,0,1.1,3.5-0.8,5.4
					c0,0-1.4,2.2-4.5,2.3c0,0-1.1,0.1-1.1,1.1h-2.4v14.1H79v5.1h12.9h12.9v-5.1h-1.6v-14.1h-2.4c0-1-1.1-1.1-1.1-1.1
					c-3.1-0.1-4.5-2.3-4.5-2.3c-1.9-2-0.8-5.4-0.8-5.4C105,149.1,103.1,136.5,103.1,136.5L103.1,136.5z"/>
			</g>
			<path class="st1" d="M99.6,159.1c-0.7,0-1.3-0.2-1.9-0.5c-1.2-0.8-1.6-2.2-1.6-2.3l-0.1-0.3l2.5-3.3l0.3-0.1
				c7.5-1.5,9.8-6.7,10.2-7.5v-5.2h-5.8c-0.4,0-0.8-0.4-0.8-0.8s0.4-0.8,0.8-0.8h7.4v7l0,0.1c-0.1,0.3-2.4,6.7-11.1,8.6l-1.7,2.2
				c0.1,0.3,0.4,0.8,0.8,1c0.4,0.3,1,0.3,1.7,0.2c0.4-0.1,0.9,0.2,0.9,0.6s-0.2,0.9-0.6,0.9C100.3,159.1,99.9,159.1,99.6,159.1z"/>
			<g>
				<path class="st1" d="M97.1,172.9v6.7H86.8v-6.7H97.1 M98.6,171.3H85.2v9.8h13.5L98.6,171.3L98.6,171.3z"/>
			</g>
		</g>
		<g>
			<path class="st1" d="M176.3,52.4c0,0,0,2.9-1.8,4.1c0,0-1.3,1.4-2.5,1.3l-3.1-0.8c0,0-0.8-0.4-1.7,0.3l-2.6,2.1l-3.6-1.5l-0.9-2
				l4,1.5l7.2-7c1.5-1.7,3-1.2,3.1-1.2c0,0,0,0,0,0S176.2,50.3,176.3,52.4z"/>
			<g>
				<path class="st1" d="M170.5,48.7L170.5,48.7c0.7,0,1.3,0.1,1.9,0.3c-0.5,0.2-1,0.6-1.5,1.1l-7,6.7l-3.1-1.2l7-6.5
					C168.2,49.1,169.2,48.7,170.5,48.7 M170.5,48.3c-1.7,0-2.9,0.5-2.9,0.5l-7.6,7.1l4,1.5l7.2-7c0.9-1,1.8-1.3,2.4-1.3
					c0.4,0,0.6,0.1,0.7,0.1C173,48.5,171.6,48.3,170.5,48.3L170.5,48.3z"/>
			</g>
			<polygon class="st1" points="170.6,51.1 166.4,50 165,51.3 169,52.6 			"/>
		</g>
		<g>
			<path class="st1" d="M250.8,196.9h-16.3c-1.2,0-2.1-0.9-2.1-2.1c0-1,0.7-1.9,1.7-2.1v-15h1.6v16.5h-1.1c-0.3,0-0.5,0.2-0.5,0.5
				s0.2,0.5,0.5,0.5h16.3c0.3,0,0.5-0.2,0.5-0.5s-0.2-0.5-0.5-0.5h-1.1v-17.5h1.6v16c1,0.2,1.7,1.1,1.7,2.1
				C252.9,196,252,196.9,250.8,196.9z"/>
			<path class="st1" d="M243.5,182.8c-0.5,0-1-0.2-1.3-0.6c-0.4-0.4-0.5-0.8-0.5-1.3c0-1.1,0-2.5,0-3.4c0-0.3-0.1-0.6-0.2-0.7
				c-1,1.5-2.7,2.4-4.6,2.4c-1.5,0-2.9-0.6-3.9-1.7s-1.6-2.5-1.6-4c0-3,2.4-5.3,5.4-5.4c1.7,0,3.3,0.7,4.4,2
				c0.3,0.3,0.2,0.8-0.1,1.1c-0.3,0.3-0.8,0.2-1.1-0.1c-0.8-1-2-1.5-3.2-1.4c-2.1,0.1-3.8,1.8-3.8,3.9c0,1.1,0.4,2.1,1.1,2.8
				c0.8,0.8,1.8,1.2,2.8,1.2c1.5,0,2.9-0.9,3.6-2.3c0.1-0.3,0.5-0.5,0.8-0.4c0.6,0.1,1.9,0.8,1.9,2.5c0,0.9,0,2.4,0,3.5
				c0,0.1,0.1,0.2,0.1,0.2s0.1,0.1,0.2,0.1c0.2,0,0.3-0.1,0.3-0.3V177c0-0.3,0.2-0.6,0.5-0.7c0.3-0.1,0.6-0.1,0.8,0.1
				c0.7,0.6,1.6,0.9,2.5,0.9c1.9-0.1,3.5-1.7,3.6-3.6c0-1-0.4-1.9-1.1-2.6c-0.7-0.7-1.6-1.1-2.6-1.1c-0.2,0-0.3,0-0.5,0
				c-0.4,0.1-0.8-0.2-0.9-0.7c-0.1-0.4,0.2-0.8,0.7-0.9c0.2,0,0.5,0,0.7,0c1.4,0,2.7,0.6,3.7,1.6c1,1,1.5,2.3,1.5,3.8
				c0,2.8-2.3,5.1-5.1,5.2c-0.8,0-1.6-0.1-2.3-0.5v2.5C245.3,181.9,244.5,182.8,243.5,182.8z"/>
			<path class="st1" d="M246.7,174.3c-0.1,0-0.2,0-0.3-0.1c-0.4-0.2-0.6-0.6-0.4-1c0.3-0.7,0.5-1.4,0.5-2.1c0-2.7-2.2-4.9-4.9-4.9
				c-2,0-3.8,1.2-4.5,3c-0.2,0.4-0.6,0.6-1,0.4c-0.4-0.2-0.6-0.6-0.4-1c1-2.4,3.3-4,6-4c3.6,0,6.5,2.9,6.5,6.5c0,1-0.2,1.9-0.6,2.7
				C247.3,174.1,247,174.3,246.7,174.3z"/>
			<rect x="234.8" y="192.7" class="st1" width="9.3" height="1.6"/>
			<rect x="246.8" y="192.7" class="st1" width="3.6" height="1.6"/>
			<path class="st1" d="M241.2,191h-1.7c-0.2,0-0.4-0.2-0.4-0.4v-9.9c0-0.2,0.2-0.4,0.4-0.4s0.4,0.2,0.4,0.4v9.5h1.3
				c0.2,0,0.4,0.2,0.4,0.4S241.4,191,241.2,191z"/>
			<rect x="244.6" y="190.2" class="st1" width="1.1" height="0.8"/>
			<g>
				<path class="st1" d="M252.5,178.7c0.4,0,0.6,0.3,0.6,0.6v9.4c0,0.4-0.3,0.6-0.6,0.6h-1.3v-10.7L252.5,178.7 M252.5,178h-2v12.3
					h2c0.8,0,1.4-0.6,1.4-1.4v-9.4C253.9,178.6,253.3,178,252.5,178L252.5,178z"/>
			</g>
			<path class="st1" d="M252.9,192.7h-2.5v-1.6h2.5c1.1,0,2-0.9,2-2v-10c0-1.1-0.9-2-2-2h-1.8v-1.6h1.8c2,0,3.6,1.6,3.6,3.6v10
				C256.5,191.1,254.9,192.7,252.9,192.7z"/>
		</g>
		<g>
			<path class="st1" d="M0.8,196.9h-16.3c-1.2,0-2.1-0.9-2.1-2.1c0-1,0.7-1.9,1.7-2.1v-15h1.6v16.5h-1.1c-0.3,0-0.5,0.2-0.5,0.5
				s0.2,0.5,0.5,0.5H0.8c0.3,0,0.5-0.2,0.5-0.5s-0.2-0.5-0.5-0.5h-1.1v-17.5h1.6v16c1,0.2,1.7,1.1,1.7,2.1
				C2.9,196,2,196.9,0.8,196.9z"/>
			<path class="st1" d="M-6.5,182.8c-0.5,0-1-0.2-1.3-0.6c-0.4-0.4-0.5-0.8-0.5-1.3c0-1.1,0-2.5,0-3.4c0-0.3-0.1-0.6-0.2-0.7
				c-1,1.5-2.7,2.4-4.6,2.4c-1.5,0-2.9-0.6-3.9-1.7c-1-1.1-1.6-2.5-1.6-4c0-3,2.4-5.3,5.4-5.4c1.7,0,3.3,0.7,4.4,2
				c0.3,0.3,0.2,0.8-0.1,1.1c-0.3,0.3-0.8,0.2-1.1-0.1c-0.8-1-1.9-1.5-3.2-1.4c-2.1,0.1-3.8,1.8-3.8,3.9c0,1.1,0.4,2.1,1.1,2.8
				c0.8,0.8,1.8,1.2,2.8,1.2c1.5,0,2.9-0.9,3.6-2.3c0.1-0.3,0.5-0.5,0.8-0.4c0.6,0.1,1.9,0.8,1.9,2.5c0,0.9,0,2.3,0,3.5
				c0,0.1,0.1,0.2,0.1,0.2c0,0,0.1,0.1,0.2,0.1c0.2,0,0.3-0.1,0.3-0.3V177c0-0.3,0.2-0.6,0.5-0.7c0.3-0.1,0.6-0.1,0.8,0.1
				c0.7,0.6,1.6,0.9,2.5,0.9c1.9-0.1,3.5-1.7,3.6-3.6c0-1-0.4-1.9-1.1-2.6c-0.7-0.7-1.6-1.1-2.6-1.1c-0.2,0-0.3,0-0.5,0
				c-0.4,0.1-0.8-0.2-0.9-0.7c-0.1-0.4,0.2-0.8,0.7-0.9c0.2,0,0.5,0,0.7,0c1.4,0,2.7,0.6,3.7,1.6c1,1,1.5,2.3,1.5,3.8
				c0,2.8-2.3,5.1-5.1,5.2c-0.8,0-1.6-0.1-2.3-0.5v2.5C-4.7,181.9-5.5,182.8-6.5,182.8z"/>
			<path class="st1" d="M-3.3,174.3c-0.1,0-0.2,0-0.3-0.1c-0.4-0.2-0.6-0.6-0.4-1c0.3-0.7,0.5-1.4,0.5-2.1c0-2.7-2.2-4.9-4.9-4.9
				c-2,0-3.8,1.2-4.5,3c-0.2,0.4-0.6,0.6-1,0.4c-0.4-0.2-0.6-0.6-0.4-1c1-2.4,3.3-4,6-4c3.6,0,6.5,2.9,6.5,6.5c0,1-0.2,1.9-0.6,2.7
				C-2.7,174.1-3,174.3-3.3,174.3z"/>
			<rect x="-15.2" y="192.7" class="st1" width="9.3" height="1.6"/>
			<rect x="-3.2" y="192.7" class="st1" width="3.6" height="1.6"/>
			<path class="st1" d="M-8.8,191h-1.7c-0.2,0-0.4-0.2-0.4-0.4v-9.9c0-0.2,0.2-0.4,0.4-0.4s0.4,0.2,0.4,0.4v9.5h1.3
				c0.2,0,0.4,0.2,0.4,0.4S-8.6,191-8.8,191z"/>
			<rect x="-5.4" y="190.2" class="st1" width="1.1" height="0.8"/>
			<g>
				<path class="st1" d="M2.5,178.7c0.4,0,0.6,0.3,0.6,0.6v9.4c0,0.4-0.3,0.6-0.6,0.6H1.2v-10.7L2.5,178.7 M2.5,178h-2v12.3h2
					c0.8,0,1.4-0.6,1.4-1.4v-9.4C3.9,178.6,3.3,178,2.5,178L2.5,178z"/>
			</g>
			<path class="st1" d="M2.9,192.7H0.5v-1.6h2.5c1.1,0,2-0.9,2-2v-10c0-1.1-0.9-2-2-2H1.1v-1.6h1.8c2,0,3.6,1.6,3.6,3.6v10
				C6.5,191.1,4.9,192.7,2.9,192.7z"/>
		</g>
		<g>
			<path class="st1" d="M10.4,32c-1.1,0-2.2-0.1-3.4-0.3c-5.5-0.9-10.3-3.9-13.5-8.4s-4.5-10-3.7-15.5l0,0C-9.3,2.4-6.3-2.4-1.8-5.6
				c4.5-3.2,10-4.5,15.5-3.7C19.2-8.4,24-5.4,27.2-0.9s4.5,10,3.7,15.5C30,20,27,24.8,22.5,28.1C18.9,30.7,14.7,32,10.4,32z
				 M10.3-7.6c-3.9,0-7.7,1.2-11,3.6C-4.7-1.1-7.4,3.2-8.2,8.2l0,0c-0.8,5,0.4,9.9,3.3,14S2.4,29,7.3,29.8c5,0.8,9.9-0.4,14-3.3
				c4.1-2.9,6.8-7.3,7.6-12.3s-0.4-9.9-3.3-14s-7.3-6.8-12.3-7.6C12.3-7.5,11.3-7.6,10.3-7.6z"/>
			<path class="st1" d="M-4.7-1.7h7.6c0.7,0,1.4-0.4,1.7-1L8-8.6C8-8.6,0.7-7.6-4.7-1.7z"/>
			<path class="st1" d="M25.8-1.7h-7.6c-0.7,0-1.4-0.4-1.7-1l-3.4-5.9C13.1-8.6,20.5-7.6,25.8-1.7z"/>
			<path class="st1" d="M25.8,24.1h-7.6c-0.7,0-1.4,0.4-1.7,1L13.1,31C13.1,31,20.5,30.1,25.8,24.1z"/>
			<path class="st1" d="M-4.7,24.1h7.6c0.7,0,1.4,0.4,1.7,1L8,31C8,31,0.7,30.1-4.7,24.1z"/>
			<path class="st1" d="M13.3,5.3h-6c-0.3,0-0.5,0.1-0.7,0.4l-3,5.2c-0.1,0.2-0.1,0.5,0,0.8l3,5.2c0.1,0.2,0.4,0.4,0.7,0.4h6
				c0.3,0,0.5-0.1,0.7-0.4l3-5.2c0.1-0.2,0.1-0.5,0-0.8l-3-5.2C13.8,5.5,13.6,5.3,13.3,5.3z"/>
			<path class="st1" d="M-7.2,2.1l3.5,8.4c0.2,0.5,0.2,1.1,0,1.5l-3.5,8.4C-7.2,20.4-12.2,12.1-7.2,2.1z"/>
			<path class="st1" d="M28,2.1l-3.5,8.4c-0.2,0.5-0.2,1.1,0,1.5l3.5,8.4C28,20.4,32.9,12.1,28,2.1z"/>
		</g>
		<g>
			<path class="st1" d="M260.4,32c-1.1,0-2.2-0.1-3.3-0.3c-11.3-1.8-19-12.5-17.2-23.8l0,0c1.8-11.3,12.5-19,23.9-17.2
				c11.3,1.8,19,12.5,17.2,23.8C279.2,24.7,270.4,32,260.4,32z M241.8,8.2c-1.7,10.3,5.3,19.9,15.6,21.6c1,0.2,2,0.2,3,0.2
				c9.1,0,17.1-6.6,18.6-15.8c1.7-10.3-5.3-19.9-15.6-21.6C253.1-9,243.4-2,241.8,8.2L241.8,8.2z"/>
			<path class="st1" d="M245.3-1.7h7.6c0.7,0,1.4-0.4,1.7-1l3.4-5.9C258-8.6,250.7-7.6,245.3-1.7z"/>
			<path class="st1" d="M275.8-1.7h-7.6c-0.7,0-1.4-0.4-1.7-1l-3.4-5.9C263.1-8.6,270.5-7.6,275.8-1.7z"/>
			<path class="st1" d="M275.8,24.1h-7.6c-0.7,0-1.4,0.4-1.7,1l-3.4,5.9C263.1,31,270.5,30.1,275.8,24.1z"/>
			<path class="st1" d="M245.3,24.1h7.6c0.7,0,1.4,0.4,1.7,1L258,31C258,31,250.7,30.1,245.3,24.1z"/>
			<path class="st1" d="M263.3,5.3h-6c-0.3,0-0.5,0.1-0.7,0.4l-3,5.2c-0.1,0.2-0.1,0.5,0,0.8l3,5.2c0.1,0.2,0.4,0.4,0.7,0.4h6
				c0.3,0,0.5-0.1,0.7-0.4l3-5.2c0.1-0.2,0.1-0.5,0-0.8l-3-5.2C263.8,5.5,263.6,5.3,263.3,5.3z"/>
			<path class="st1" d="M242.8,2.1l3.5,8.4c0.2,0.5,0.2,1.1,0,1.5l-3.5,8.4C242.8,20.4,237.8,12.1,242.8,2.1z"/>
			<path class="st1" d="M278,2.1l-3.5,8.4c-0.2,0.5-0.2,1.1,0,1.5l3.5,8.4C278,20.4,282.9,12.1,278,2.1z"/>
		</g>
		<g>
			<path class="st1" d="M260.4,282c-1.1,0-2.2-0.1-3.3-0.3c-11.3-1.8-19-12.5-17.2-23.9l0,0c1.8-11.3,12.5-19,23.9-17.2
				c11.3,1.8,19,12.5,17.2,23.9C279.2,274.7,270.4,282,260.4,282z M241.8,258.2c-1.7,10.3,5.3,19.9,15.6,21.6c1,0.2,2,0.2,3,0.2
				c9.1,0,17.1-6.6,18.6-15.8c1.7-10.3-5.3-19.9-15.6-21.6C253.1,241,243.4,248,241.8,258.2L241.8,258.2z"/>
			<path class="st1" d="M245.3,248.3h7.6c0.7,0,1.4-0.4,1.7-1l3.4-5.9C258,241.4,250.7,242.4,245.3,248.3z"/>
			<path class="st1" d="M275.8,248.3h-7.6c-0.7,0-1.4-0.4-1.7-1l-3.4-5.9C263.1,241.4,270.5,242.4,275.8,248.3z"/>
			<path class="st1" d="M275.8,274.1h-7.6c-0.7,0-1.4,0.4-1.7,1l-3.4,5.9C263.1,281,270.5,280.1,275.8,274.1z"/>
			<path class="st1" d="M245.3,274.1h7.6c0.7,0,1.4,0.4,1.7,1l3.4,5.9C258,281,250.7,280.1,245.3,274.1z"/>
			<path class="st1" d="M263.3,255.3h-6c-0.3,0-0.5,0.1-0.7,0.4l-3,5.2c-0.1,0.2-0.1,0.5,0,0.8l3,5.2c0.1,0.2,0.4,0.4,0.7,0.4h6
				c0.3,0,0.5-0.1,0.7-0.4l3-5.2c0.1-0.2,0.1-0.5,0-0.8l-3-5.2C263.8,255.5,263.6,255.3,263.3,255.3z"/>
			<path class="st1" d="M242.8,252.1l3.5,8.4c0.2,0.5,0.2,1.1,0,1.5l-3.5,8.4C242.8,270.4,237.8,262.1,242.8,252.1z"/>
			<path class="st1" d="M278,252.1l-3.5,8.4c-0.2,0.5-0.2,1.1,0,1.5l3.5,8.4C278,270.4,282.9,262.1,278,252.1z"/>
		</g>
		<g>
			<path class="st1" d="M10.4,282c-1.1,0-2.2-0.1-3.4-0.3c-5.5-0.9-10.3-3.9-13.5-8.4c-3.2-4.5-4.5-10-3.7-15.5l0,0
				c0.9-5.5,3.9-10.3,8.4-13.5c4.5-3.2,10-4.5,15.5-3.7c5.5,0.9,10.3,3.9,13.5,8.4c3.2,4.5,4.5,10,3.7,15.5
				c-0.9,5.5-3.9,10.3-8.4,13.5C18.9,280.7,14.7,282,10.4,282z M10.3,242.4c-3.9,0-7.7,1.2-11,3.6c-4.1,2.9-6.8,7.3-7.6,12.3l0,0
				c-0.8,5,0.4,9.9,3.3,14s7.3,6.8,12.3,7.6c5,0.8,9.9-0.4,14-3.3c4.1-2.9,6.8-7.3,7.6-12.3c0.8-5-0.4-9.9-3.3-14s-7.3-6.8-12.3-7.6
				C12.3,242.5,11.3,242.4,10.3,242.4z"/>
			<path class="st1" d="M-4.7,248.3h7.6c0.7,0,1.4-0.4,1.7-1l3.4-5.9C8,241.4,0.7,242.4-4.7,248.3z"/>
			<path class="st1" d="M25.8,248.3h-7.6c-0.7,0-1.4-0.4-1.7-1l-3.4-5.9C13.1,241.4,20.5,242.4,25.8,248.3z"/>
			<path class="st1" d="M25.8,274.1h-7.6c-0.7,0-1.4,0.4-1.7,1l-3.4,5.9C13.1,281,20.5,280.1,25.8,274.1z"/>
			<path class="st1" d="M-4.7,274.1h7.6c0.7,0,1.4,0.4,1.7,1L8,281C8,281,0.7,280.1-4.7,274.1z"/>
			<path class="st1" d="M13.3,255.3h-6c-0.3,0-0.5,0.1-0.7,0.4l-3,5.2c-0.1,0.2-0.1,0.5,0,0.8l3,5.2c0.1,0.2,0.4,0.4,0.7,0.4h6
				c0.3,0,0.5-0.1,0.7-0.4l3-5.2c0.1-0.2,0.1-0.5,0-0.8l-3-5.2C13.8,255.5,13.6,255.3,13.3,255.3z"/>
			<path class="st1" d="M-7.2,252.1l3.5,8.4c0.2,0.5,0.2,1.1,0,1.5l-3.5,8.4C-7.2,270.4-12.2,262.1-7.2,252.1z"/>
			<path class="st1" d="M28,252.1l-3.5,8.4c-0.2,0.5-0.2,1.1,0,1.5l3.5,8.4C28,270.4,32.9,262.1,28,252.1z"/>
		</g>
		<g>
			<g>
				<path class="st1" d="M47.4,31.2l2.5,13.4l-9.6,1.8L37.8,33L47.4,31.2 M48,30C47.9,30,47.9,30,48,30l-11,2
					c-0.2,0-0.3,0.2-0.3,0.4l2.7,14.8c0,0.2,0.2,0.3,0.3,0.3c0,0,0.1,0,0.1,0l11-2c0.2,0,0.3-0.2,0.3-0.4l-2.7-14.8
					C48.3,30.2,48.1,30,48,30L48,30z"/>
			</g>
			<path class="st1" d="M59.2,30.3l-3.4,13.9c-0.1,0.4-0.5,0.6-0.9,0.5l-3.2-0.8L49,29.3c-0.1-0.4-0.4-0.6-0.8-0.6l-0.9,0.2l0.4-1.5
				c0.1-0.4,0.5-0.6,0.9-0.5l10.1,2.5C59.1,29.5,59.3,29.9,59.2,30.3z"/>
		</g>
		<polygon class="st1" points="11.5,80.2 3.7,85.9 6.7,95.1 16.4,95.1 19.4,85.9 		"/>
		<circle class="st1" cx="31.8" cy="228.8" r="8.9"/>
		<g>
			<rect x="23.1" y="185.7" class="st1" width="0.9" height="18.3"/>
			<path class="st1" d="M25.2,195.3v-9.6c0,0,4.9-2.4,8.7,1.9c0,0,3.9,0.9,6.2-0.9v9.4c0,0-5.6,2.4-7.4-0.5
				C32.6,195.6,28.8,192.5,25.2,195.3z"/>
		</g>
		<polygon class="st1" points="50,127 43.9,131.5 46.2,138.7 53.8,138.7 56.2,131.5 		"/>
		<polygon class="st1" points="225.2,14.5 219,19 221.4,26.2 229,26.2 231.3,19 		"/>
		<circle class="st3" cx="166.7" cy="107.3" r="20.1"/>
		<path class="st1" d="M182,82.6c-2.5,0-4.6-2.1-4.6-4.6s2.1-4.6,4.6-4.6c2.5,0,4.6,2.1,4.6,4.6S184.5,82.6,182,82.6z M182,74.9
			c-1.7,0-3.1,1.4-3.1,3.1c0,1.7,1.4,3.1,3.1,3.1s3.1-1.4,3.1-3.1C185.1,76.3,183.7,74.9,182,74.9z"/>
		<g>
			<path class="st1" d="M187.7,73.8c-0.2,0-0.4-0.1-0.5-0.2c-0.3-0.3-0.3-0.8,0-1.1l20.3-20.3c0.2-0.2,0.5-0.3,0.8-0.2
				c0.3,0.1,0.5,0.4,0.5,0.7v4.2c0,0.4-0.3,0.8-0.8,0.8s-0.8-0.3-0.8-0.8v-2.3l-19,19C188.1,73.7,187.9,73.8,187.7,73.8z"/>
			<path class="st1" d="M208,53.5h-4.8c-0.4,0-0.8-0.3-0.8-0.8s0.3-0.8,0.8-0.8h4.8c0.4,0,0.8,0.3,0.8,0.8S208.4,53.5,208,53.5z"/>
		</g>
		<path class="st1" d="M212.6,51.6c-2.5,0-4.6-2.1-4.6-4.6s2.1-4.6,4.6-4.6c2.5,0,4.6,2.1,4.6,4.6S215.1,51.6,212.6,51.6z
			 M212.6,43.9c-1.7,0-3.1,1.4-3.1,3.1c0,1.7,1.4,3.1,3.1,3.1s3.1-1.4,3.1-3.1C215.7,45.3,214.3,43.9,212.6,43.9z"/>
		<polygon class="st3" points="78.6,36.8 64.1,47.3 69.6,64.3 87.5,64.3 93.1,47.3 		"/>
		<path class="st1" d="M64.6,181.3c-2.5,0-4.6-2.1-4.6-4.6s2.1-4.6,4.6-4.6s4.6,2.1,4.6,4.6S67.1,181.3,64.6,181.3z M64.6,173.6
			c-1.7,0-3.1,1.4-3.1,3.1s1.4,3.1,3.1,3.1c1.7,0,3.1-1.4,3.1-3.1S66.3,173.6,64.6,173.6z"/>
		<g>
			<g>
				<path class="st1" d="M55.1,177.6c-0.4,0-0.7-0.3-0.7-0.7c0-0.4,0.3-0.8,0.7-0.8c0.7,0,1.2-0.1,1.2-0.1c0.4-0.1,0.8,0.2,0.8,0.6
					c0.1,0.4-0.2,0.8-0.6,0.8C56.4,177.5,55.9,177.5,55.1,177.6C55.1,177.6,55.1,177.6,55.1,177.6z"/>
				<path class="st1" d="M52.5,177.6C52.5,177.6,52.5,177.6,52.5,177.6c-0.9,0-1.8-0.1-2.6-0.2c-0.4,0-0.7-0.4-0.7-0.8
					c0-0.4,0.4-0.7,0.8-0.7c0.8,0.1,1.7,0.1,2.5,0.2c0.4,0,0.7,0.4,0.7,0.8C53.3,177.3,52.9,177.6,52.5,177.6z M47.4,177.1
					c0,0-0.1,0-0.1,0c-0.9-0.2-1.7-0.3-2.6-0.6c-0.4-0.1-0.6-0.5-0.5-0.9c0.1-0.4,0.5-0.6,0.9-0.5c0.8,0.2,1.6,0.4,2.4,0.5
					c0.4,0.1,0.7,0.5,0.6,0.9C48.1,176.9,47.8,177.1,47.4,177.1z M42.5,175.8c-0.1,0-0.2,0-0.3,0c-0.8-0.3-1.7-0.6-2.4-1
					c-0.4-0.2-0.5-0.6-0.4-1c0.2-0.4,0.6-0.5,1-0.4c0.7,0.3,1.5,0.7,2.3,0.9c0.4,0.1,0.6,0.6,0.5,1
					C43.1,175.6,42.8,175.8,42.5,175.8z M37.9,173.6c-0.1,0-0.3,0-0.4-0.1c-0.8-0.5-1.5-1-2.2-1.5c-0.3-0.3-0.4-0.7-0.1-1.1
					c0.3-0.3,0.7-0.4,1.1-0.1c0.6,0.5,1.3,1,2,1.4c0.4,0.2,0.5,0.7,0.3,1C38.4,173.5,38.1,173.6,37.9,173.6z M33.8,170.5
					c-0.2,0-0.4-0.1-0.5-0.2c-0.6-0.6-1.2-1.3-1.8-1.9c-0.3-0.3-0.2-0.8,0.1-1.1c0.3-0.3,0.8-0.2,1.1,0.1c0.5,0.6,1.1,1.2,1.7,1.8
					c0.3,0.3,0.3,0.8,0,1.1C34.2,170.5,34,170.5,33.8,170.5z M30.6,166.6c-0.2,0-0.5-0.1-0.6-0.3c-0.5-0.7-0.9-1.5-1.3-2.3
					c-0.2-0.4,0-0.8,0.3-1c0.4-0.2,0.8,0,1,0.3c0.4,0.7,0.8,1.5,1.2,2.1c0.2,0.3,0.1,0.8-0.2,1C30.9,166.6,30.7,166.6,30.6,166.6z
					 M28.2,162.1c-0.3,0-0.6-0.2-0.7-0.5c-0.3-0.8-0.6-1.6-0.9-2.5c-0.1-0.4,0.1-0.8,0.5-0.9c0.4-0.1,0.8,0.1,0.9,0.5
					c0.2,0.8,0.5,1.6,0.8,2.3c0.2,0.4,0,0.8-0.4,1C28.4,162.1,28.3,162.1,28.2,162.1z M26.7,157.2c-0.3,0-0.7-0.2-0.7-0.6
					c-0.2-0.8-0.3-1.7-0.5-2.6c-0.1-0.4,0.2-0.8,0.6-0.9c0.4-0.1,0.8,0.2,0.9,0.6c0.1,0.8,0.3,1.7,0.5,2.5c0.1,0.4-0.2,0.8-0.6,0.9
					C26.8,157.2,26.8,157.2,26.7,157.2z"/>
				<path class="st1" d="M25.9,152.1c-0.4,0-0.7-0.3-0.7-0.7c0-0.4-0.1-0.8-0.1-1.3c0-0.4,0.3-0.8,0.7-0.8c0.4,0,0.8,0.3,0.8,0.7
					c0,0.4,0.1,0.8,0.1,1.2C26.7,151.7,26.4,152.1,25.9,152.1C26,152.1,25.9,152.1,25.9,152.1z"/>
			</g>
			<path class="st1" d="M30.4,154.7c-0.2,0-0.3-0.1-0.5-0.2l-4.1-3.4l-3.9,3.4c-0.3,0.3-0.8,0.2-1.1-0.1c-0.3-0.3-0.2-0.8,0.1-1.1
				l4.4-3.9c0.3-0.2,0.7-0.2,1,0l4.6,3.9c0.3,0.3,0.4,0.7,0.1,1.1C30.8,154.7,30.6,154.7,30.4,154.7z"/>
		</g>
		<g>
			<path class="st1" d="M46.5,166.9c-0.2,0-0.4-0.1-0.5-0.2l-5.4-5.4c-0.3-0.3-0.3-0.8,0-1.1s0.8-0.3,1.1,0l5.4,5.4
				c0.3,0.3,0.3,0.8,0,1.1C46.9,166.9,46.7,166.9,46.5,166.9z"/>
			<path class="st1" d="M41.1,166.9c-0.2,0-0.4-0.1-0.5-0.2c-0.3-0.3-0.3-0.8,0-1.1l5.4-5.4c0.3-0.3,0.8-0.3,1.1,0s0.3,0.8,0,1.1
				l-5.4,5.4C41.5,166.9,41.3,166.9,41.1,166.9z"/>
		</g>
		<g>
			<path class="st1" d="M123.3,31c-0.2,0-0.4-0.1-0.5-0.2l-5.4-5.4c-0.3-0.3-0.3-0.8,0-1.1c0.3-0.3,0.8-0.3,1.1,0l5.4,5.4
				c0.3,0.3,0.3,0.8,0,1.1C123.6,30.9,123.5,31,123.3,31z"/>
			<path class="st1" d="M117.9,31c-0.2,0-0.4-0.1-0.5-0.2c-0.3-0.3-0.3-0.8,0-1.1l5.4-5.4c0.3-0.3,0.8-0.3,1.1,0
				c0.3,0.3,0.3,0.8,0,1.1l-5.4,5.4C118.3,30.9,118.1,31,117.9,31z"/>
		</g>
		<g>
			<path class="st1" d="M239,87.6c-0.2,0-0.4-0.1-0.5-0.2l-5.4-5.4c-0.3-0.3-0.3-0.8,0-1.1c0.3-0.3,0.8-0.3,1.1,0l5.4,5.4
				c0.3,0.3,0.3,0.8,0,1.1C239.4,87.5,239.2,87.6,239,87.6z"/>
			<path class="st1" d="M233.6,87.6c-0.2,0-0.4-0.1-0.5-0.2c-0.3-0.3-0.3-0.8,0-1.1l5.4-5.4c0.3-0.3,0.8-0.3,1.1,0
				c0.3,0.3,0.3,0.8,0,1.1l-5.4,5.4C234,87.5,233.8,87.6,233.6,87.6z"/>
		</g>
		<g>
			<g>
				<path class="st1" d="M6.2,75.1c-0.4,0-0.7-0.3-0.7-0.7c0,0-0.1-0.5-0.1-1.3c0-0.4,0.3-0.8,0.7-0.8c0.4,0,0.8,0.3,0.8,0.7
					c0,0.7,0.1,1.2,0.1,1.2C7,74.7,6.7,75,6.2,75.1C6.2,75.1,6.2,75.1,6.2,75.1z"/>
				<path class="st1" d="M6,71.3C6,71.3,6,71.3,6,71.3c-0.4,0-0.8-0.4-0.8-0.8c0-0.9,0.1-1.7,0.2-2.6c0-0.4,0.4-0.7,0.8-0.7
					c0.4,0,0.7,0.4,0.7,0.8c-0.1,0.8-0.1,1.7-0.2,2.5C6.8,71,6.4,71.3,6,71.3z M6.5,66.2c0,0-0.1,0-0.1,0c-0.4-0.1-0.7-0.5-0.6-0.9
					c0.2-0.9,0.3-1.7,0.6-2.6c0.1-0.4,0.5-0.6,0.9-0.5c0.4,0.1,0.6,0.5,0.5,0.9c-0.2,0.8-0.4,1.6-0.5,2.4
					C7.2,65.9,6.9,66.2,6.5,66.2z M7.8,61.3c-0.1,0-0.2,0-0.3,0c-0.4-0.1-0.6-0.6-0.5-1c0.3-0.8,0.6-1.7,1-2.4
					c0.2-0.4,0.6-0.5,1-0.4c0.4,0.2,0.5,0.6,0.4,1c-0.3,0.7-0.7,1.5-0.9,2.3C8.4,61.1,8.1,61.3,7.8,61.3z M10,56.6
					c-0.1,0-0.3,0-0.4-0.1c-0.4-0.2-0.5-0.7-0.3-1c0.5-0.8,1-1.5,1.5-2.2c0.3-0.3,0.7-0.4,1.1-0.1c0.3,0.3,0.4,0.7,0.1,1.1
					c-0.5,0.6-1,1.3-1.4,2C10.5,56.5,10.3,56.6,10,56.6z M13.1,52.6c-0.2,0-0.4-0.1-0.5-0.2c-0.3-0.3-0.3-0.8,0-1.1
					c0.6-0.6,1.3-1.2,1.9-1.8c0.3-0.3,0.8-0.2,1.1,0.1s0.2,0.8-0.1,1.1c-0.6,0.5-1.2,1.1-1.8,1.7C13.5,52.5,13.3,52.6,13.1,52.6z
					 M17,49.3c-0.2,0-0.5-0.1-0.6-0.3c-0.2-0.3-0.1-0.8,0.2-1c0.7-0.5,1.5-0.9,2.3-1.3c0.4-0.2,0.8,0,1,0.3c0.2,0.4,0,0.8-0.3,1
					c-0.7,0.4-1.5,0.8-2.1,1.2C17.3,49.3,17.2,49.3,17,49.3z M21.6,47c-0.3,0-0.6-0.2-0.7-0.5c-0.2-0.4,0-0.8,0.4-1
					c0.8-0.3,1.6-0.6,2.5-0.9c0.4-0.1,0.8,0.1,0.9,0.5c0.1,0.4-0.1,0.8-0.5,0.9c-0.8,0.2-1.6,0.5-2.3,0.8C21.8,47,21.7,47,21.6,47z
					 M26.4,45.5c-0.3,0-0.7-0.2-0.7-0.6c-0.1-0.4,0.2-0.8,0.6-0.9c0.8-0.2,1.7-0.3,2.6-0.5c0.4-0.1,0.8,0.2,0.9,0.6
					c0.1,0.4-0.2,0.8-0.6,0.9c-0.8,0.1-1.7,0.3-2.5,0.5C26.5,45.5,26.5,45.5,26.4,45.5z"/>
				<path class="st1" d="M31.5,44.7c-0.4,0-0.7-0.3-0.7-0.7c0-0.4,0.3-0.8,0.7-0.8c0.4,0,0.8-0.1,1.3-0.1c0.4,0,0.8,0.3,0.8,0.7
					c0,0.4-0.3,0.8-0.7,0.8C32.4,44.6,32,44.7,31.5,44.7C31.6,44.7,31.5,44.7,31.5,44.7z"/>
			</g>
			<path class="st1" d="M28.9,49.1c-0.2,0-0.3-0.1-0.5-0.2c-0.3-0.3-0.4-0.7-0.1-1.1l3.4-4.1l-3.4-3.9c-0.3-0.3-0.2-0.8,0.1-1.1
				c0.3-0.3,0.8-0.2,1.1,0.1l3.9,4.4c0.2,0.3,0.2,0.7,0,1l-3.9,4.6C29.3,49.1,29.1,49.1,28.9,49.1z"/>
		</g>
		<path class="st1" d="M79.9,113.9c-2.5,0-4.6-2.1-4.6-4.6s2.1-4.6,4.6-4.6s4.6,2.1,4.6,4.6S82.5,113.9,79.9,113.9z M79.9,106.2
			c-1.7,0-3.1,1.4-3.1,3.1c0,1.7,1.4,3.1,3.1,3.1c1.7,0,3.1-1.4,3.1-3.1C83,107.6,81.6,106.2,79.9,106.2z"/>
		<path class="st1" d="M226.7,138.3c-2.5,0-4.6-2.1-4.6-4.6c0-2.5,2.1-4.6,4.6-4.6s4.6,2.1,4.6,4.6
			C231.3,136.2,229.2,138.3,226.7,138.3z M226.7,130.6c-1.7,0-3.1,1.4-3.1,3.1c0,1.7,1.4,3.1,3.1,3.1s3.1-1.4,3.1-3.1
			C229.8,132,228.4,130.6,226.7,130.6z"/>
		<path class="st1" d="M232.1,237.1c-4.9,0-8.9-4-8.9-8.9s4-8.9,8.9-8.9c4.9,0,8.9,4,8.9,8.9S236.9,237.1,232.1,237.1z M232.1,222.3
			c-3.3,0-6,2.7-6,6s2.7,6,6,6c3.3,0,6-2.7,6-6S235.3,222.3,232.1,222.3z"/>
		<g>
			<path class="st1" d="M94.6,92.4c-0.2,0-0.4-0.1-0.5-0.2l-5.4-5.4c-0.3-0.3-0.3-0.8,0-1.1c0.3-0.3,0.8-0.3,1.1,0l5.4,5.4
				c0.3,0.3,0.3,0.8,0,1.1C95,92.3,94.8,92.4,94.6,92.4z"/>
			<path class="st1" d="M89.2,92.4c-0.2,0-0.4-0.1-0.5-0.2c-0.3-0.3-0.3-0.8,0-1.1l5.4-5.4c0.3-0.3,0.8-0.3,1.1,0
				c0.3,0.3,0.3,0.8,0,1.1l-5.4,5.4C89.6,92.3,89.4,92.4,89.2,92.4z"/>
		</g>
		<circle class="st1" cx="146.4" cy="81.9" r="3.9"/>
		<path class="st1" d="M146.4,76.4c-0.4,0-0.8-0.3-0.8-0.8v-2.5c0-0.4,0.3-0.8,0.8-0.8s0.8,0.3,0.8,0.8v2.5
			C147.2,76.1,146.9,76.4,146.4,76.4z M146.4,71.4c-0.4,0-0.8-0.3-0.8-0.8v-2.5c0-0.4,0.3-0.8,0.8-0.8s0.8,0.3,0.8,0.8v2.5
			C147.2,71.1,146.9,71.4,146.4,71.4z M146.4,66.4c-0.4,0-0.8-0.3-0.8-0.8v-2.5c0-0.4,0.3-0.8,0.8-0.8s0.8,0.3,0.8,0.8v2.5
			C147.2,66.1,146.9,66.4,146.4,66.4z M146.4,61.4c-0.4,0-0.8-0.3-0.8-0.8v-2.5c0-0.4,0.3-0.8,0.8-0.8s0.8,0.3,0.8,0.8v2.5
			C147.2,61.1,146.9,61.4,146.4,61.4z M146.4,56.4c-0.4,0-0.8-0.3-0.8-0.8v-2.5c0-0.4,0.3-0.8,0.8-0.8s0.8,0.3,0.8,0.8v2.5
			C147.2,56.1,146.9,56.4,146.4,56.4z M146.4,51.4c-0.4,0-0.8-0.3-0.8-0.8v-2.5c0-0.4,0.3-0.8,0.8-0.8s0.8,0.3,0.8,0.8v2.5
			C147.2,51.1,146.9,51.4,146.4,51.4z M146.4,46.4c-0.4,0-0.8-0.3-0.8-0.8v-2.5c0-0.4,0.3-0.8,0.8-0.8s0.8,0.3,0.8,0.8v2.5
			C147.2,46.1,146.9,46.4,146.4,46.4z M146.4,41.4c-0.4,0-0.8-0.3-0.8-0.8v-1.4c0-0.4,0.3-0.8,0.8-0.8s0.8,0.3,0.8,0.8v1.4
			C147.2,41.1,146.9,41.4,146.4,41.4z"/>
		<path class="st1" d="M143.1,42.9c-0.2,0-0.4-0.1-0.6-0.3c-0.3-0.3-0.2-0.8,0.1-1.1l3.4-2.9c0.3-0.3,0.8-0.2,1.1,0.1
			c0.3,0.3,0.2,0.8-0.1,1.1l-3.4,2.9C143.4,42.8,143.2,42.9,143.1,42.9z"/>
		<path class="st1" d="M149.8,42.9c-0.2,0-0.3-0.1-0.5-0.2l-3.4-2.9c-0.3-0.3-0.3-0.7-0.1-1.1c0.3-0.3,0.7-0.3,1.1-0.1l3.4,2.9
			c0.3,0.3,0.3,0.7,0.1,1.1C150.2,42.8,150,42.9,149.8,42.9z"/>
		<circle class="st3" cx="212.6" cy="166.2" r="12.4"/>
		<g>
			<path class="st1" d="M201.2,193.7c-0.2,0-0.4-0.1-0.5-0.2l-5.4-5.4c-0.3-0.3-0.3-0.8,0-1.1s0.8-0.3,1.1,0l5.4,5.4
				c0.3,0.3,0.3,0.8,0,1.1C201.6,193.6,201.4,193.7,201.2,193.7z"/>
			<path class="st1" d="M195.9,193.7c-0.2,0-0.4-0.1-0.5-0.2c-0.3-0.3-0.3-0.8,0-1.1l5.4-5.4c0.3-0.3,0.8-0.3,1.1,0s0.3,0.8,0,1.1
				l-5.4,5.4C196.3,193.6,196.1,193.7,195.9,193.7z"/>
		</g>
		<circle class="st1" cx="64.8" cy="11.2" r="6.5"/>
		<polygon class="st3" points="100.2,223.6 91.5,229.9 94.8,240.2 105.6,240.2 109,229.9 		"/>
		<path class="st1" d="M180.7,213.8c-2.5,0-4.6-2.1-4.6-4.6c0-2.5,2.1-4.6,4.6-4.6s4.6,2.1,4.6,4.6
			C185.3,211.7,183.2,213.8,180.7,213.8z M180.7,206.1c-1.7,0-3.1,1.4-3.1,3.1c0,1.7,1.4,3.1,3.1,3.1s3.1-1.4,3.1-3.1
			C183.8,207.4,182.4,206.1,180.7,206.1z"/>
		<g>
			<path class="st1" d="M207.2,147.4c-0.2,0-0.4-0.1-0.5-0.2l-20.3-20.3c-0.2-0.2-0.3-0.5-0.2-0.8s0.4-0.5,0.7-0.5h4.2
				c0.4,0,0.8,0.3,0.8,0.8s-0.3,0.8-0.8,0.8h-2.3l19,19c0.3,0.3,0.3,0.8,0,1.1C207.6,147.4,207.4,147.4,207.2,147.4z"/>
			<path class="st1" d="M186.9,131.9c-0.4,0-0.8-0.3-0.8-0.8v-4.8c0-0.4,0.3-0.8,0.8-0.8s0.8,0.3,0.8,0.8v4.8
				C187.7,131.6,187.3,131.9,186.9,131.9z"/>
		</g>
		<g>
			<path class="st1" d="M109.5,221.5c-0.2,0-0.4-0.1-0.6-0.3c-0.3-0.3-0.2-0.8,0.1-1.1c0.1-0.1,9.5-7.4,10.6-18.5
				c0.7-7-2-14-7.9-20.8c-0.3-0.3-0.2-0.8,0.1-1.1c0.3-0.3,0.8-0.2,1.1,0.1c6.3,7.2,9.1,14.5,8.3,21.9
				c-1.2,11.7-10.8,19.2-11.2,19.5C109.8,221.5,109.7,221.5,109.5,221.5z"/>
			<path class="st1" d="M111.8,187.1C111.8,187.1,111.7,187.1,111.8,187.1c-0.5,0-0.8-0.4-0.7-0.8l0.5-5.9c0-0.4,0.3-0.7,0.7-0.7
				l5.8-0.4c0.4,0,0.8,0.3,0.8,0.7c0,0.4-0.3,0.8-0.7,0.8l-5.2,0.3l-0.4,5.3C112.5,186.8,112.2,187.1,111.8,187.1z"/>
		</g>
		<g>
			<path class="st1" d="M111.6,205.9c-0.2,0-0.4-0.1-0.5-0.2l-5.4-5.4c-0.3-0.3-0.3-0.8,0-1.1s0.8-0.3,1.1,0l5.4,5.4
				c0.3,0.3,0.3,0.8,0,1.1C112,205.8,111.8,205.9,111.6,205.9z"/>
			<path class="st1" d="M106.3,205.9c-0.2,0-0.4-0.1-0.5-0.2c-0.3-0.3-0.3-0.8,0-1.1l5.4-5.4c0.3-0.3,0.8-0.3,1.1,0s0.3,0.8,0,1.1
				l-5.4,5.4C106.7,205.8,106.5,205.9,106.3,205.9z"/>
		</g>
		<circle class="st1" cx="34.8" cy="102.6" r="3.9"/>
		<g>
			<path class="st1" d="M21.6,63.8c-0.2,0-0.4-0.1-0.5-0.2l-5.4-5.4c-0.3-0.3-0.3-0.8,0-1.1c0.3-0.3,0.8-0.3,1.1,0l5.4,5.4
				c0.3,0.3,0.3,0.8,0,1.1C21.9,63.7,21.8,63.8,21.6,63.8z"/>
			<path class="st1" d="M16.2,63.8c-0.2,0-0.4-0.1-0.5-0.2c-0.3-0.3-0.3-0.8,0-1.1l5.4-5.4c0.3-0.3,0.8-0.3,1.1,0
				c0.3,0.3,0.3,0.8,0,1.1l-5.4,5.4C16.6,63.7,16.4,63.8,16.2,63.8z"/>
		</g>
	</g>
</g>
</svg>
