<?xml version="1.0" encoding="utf-8"?>
<!-- Generator: Adobe Illustrator 24.1.1, SVG Export Plug-In . SVG Version: 6.00 Build 0)  -->
<svg version="1.1" id="Capa_1" xmlns="http://www.w3.org/2000/svg" xmlns:xlink="http://www.w3.org/1999/xlink" x="0px" y="0px"
	 viewBox="0 0 1024 1024" style="enable-background:new 0 0 1024 1024;" xml:space="preserve">
<style type="text/css">
	.st0{fill:none;}
	.st1{enable-background:new    ;}
	.st2{fill:#FFFFFF;}
	.st3{fill:url(#SVGID_1_);}
	.st4{fill:url(#SVGID_2_);}
</style>
<g>
	<rect x="134.2" y="803.5" class="st0" width="755.5" height="76.4"/>
	<g class="st1">
		<path class="st2" d="M163.3,867.5l22-62.3h17.1l22,62.3H208l-4.1-12.1h-19.6l-4.2,12.1H163.3z M187.7,841.1h12.3l-6.1-19.9
			L187.7,841.1z"/>
		<path class="st2" d="M283.4,867.5h-17.2l-9-21.4h-8.8v21.4h-16.8v-62.3h28.2c5.4,0,9.7,0.9,13,2.7c3.3,1.8,5.7,4.2,7.2,7.2
			c1.5,3,2.2,6.4,2.2,10.2c0,4.8-0.9,8.5-2.8,11.3c-1.8,2.8-4.2,5-7.1,6.8L283.4,867.5z M258,833.5c2.2,0,3.9-0.8,5.4-2.5
			c1.4-1.7,2.1-3.5,2.1-5.6c0-2.2-0.8-4-2.3-5.5c-1.6-1.5-3.3-2.3-5.2-2.3h-9.6v15.9H258z"/>
		<path class="st2" d="M291.1,867.5v-7.7l29.3-40.8h-26.6v-13.8h50.7v7.3l-29.9,41H344v14H291.1z"/>
		<path class="st2" d="M381.4,868.3c-6.2,0-11.5-1.3-16-3.9c-4.5-2.6-8-6.3-10.5-11.1c-2.5-4.8-3.7-10.4-3.7-16.8
			c0-6.5,1.3-12.1,3.8-16.9c2.5-4.8,6-8.5,10.6-11.2c4.5-2.7,9.8-4,15.9-4c6,0,11.3,1.3,15.8,4c4.5,2.7,8,6.4,10.5,11.2
			c2.5,4.8,3.7,10.5,3.7,16.9c0,6.4-1.2,12-3.7,16.8c-2.5,4.8-5.9,8.5-10.4,11.1C392.8,867,387.5,868.3,381.4,868.3z M381.4,854.9
			c2.3,0,4.3-0.6,6.1-1.7c1.8-1.2,3.2-3.1,4.2-5.7c1-2.7,1.5-6.2,1.5-10.7c0-4.6-0.5-8.3-1.5-11.1s-2.4-4.8-4.2-6
			c-1.8-1.2-3.8-1.9-6.1-1.9c-2.3,0-4.3,0.6-6.1,1.9c-1.8,1.2-3.2,3.2-4.2,6c-1,2.8-1.6,6.5-1.6,11.1c0,4.5,0.5,8,1.6,10.7
			c1,2.7,2.4,4.6,4.2,5.7C377,854.3,379.1,854.9,381.4,854.9z"/>
		<path class="st2" d="M474.3,805.2l-21,62.3h-18.4l-21-62.3h15.8l14.4,42.6l14.4-42.6H474.3z"/>
	</g>
	<g class="st1">
		<path class="st2" d="M547.9,846.5c0,7.1-1.8,12.5-5.3,16.2s-9.2,5.6-16.9,5.6c-7.8,0-13.4-1.9-16.9-5.8c-3.5-3.8-5.2-9.5-5.2-17
			v-40.4h7v41.6c0,10.4,5,15.5,15.1,15.5c5,0,8.8-1.3,11.5-3.8c2.7-2.6,4-6.4,4-11.7v-41.6h6.8V846.5z"/>
		<path class="st2" d="M563.3,867.5v-62.3h9l20,53.4l20.3-53.4h9v62.3h-7v-51.1l-18.9,51.1H589l-18.7-50.6v50.6H563.3z"/>
		<path class="st2" d="M634.3,867.5l22.6-62.3h7.8l22.6,62.3h-6.9l-6.4-17.7h-26.3l-6.5,17.7H634.3z M649.5,843.4h22.6l-11.2-31.4
			L649.5,843.4z"/>
		<path class="st2" d="M686.3,811.5v-6.2h46.4v6.2h-19.2v56h-6.8v-56H686.3z"/>
		<path class="st2" d="M765.2,804.4c4.3,0,8.1,0.9,11.4,2.7c3.3,1.8,6,4.2,8,7.2c2,3,3.2,6.2,3.6,9.7H781c-0.5-2.5-1.4-4.8-2.8-6.8
			c-1.3-2.1-3.1-3.7-5.3-5c-2.2-1.2-4.8-1.9-7.9-1.9c-6,0-10.6,2.1-13.7,6.3c-3.1,4.2-4.7,10.8-4.7,19.6c0,8.9,1.6,15.5,4.7,19.7
			c3.1,4.2,7.7,6.3,13.7,6.3c3.1,0,5.7-0.6,7.9-1.9s4-3,5.3-5.1c1.3-2.1,2.3-4.4,2.8-6.9h7.2c-0.4,3.4-1.6,6.7-3.4,9.7
			c-1.8,3-4.4,5.5-7.7,7.4s-7.3,2.8-12,2.8c-8.3,0-14.7-2.8-19.2-8.4c-4.5-5.6-6.8-13.5-6.8-23.7c0-10.2,2.2-18.1,6.7-23.6
			C750.5,807.1,756.9,804.4,765.2,804.4z"/>
		<path class="st2" d="M839,838.2h-30.5v29.2h-6.7v-62.3h6.7v27H839v-27h6.7v62.3H839V838.2z"/>
	</g>
	<g>
		
			<linearGradient id="SVGID_1_" gradientUnits="userSpaceOnUse" x1="311.0601" y1="759.255" x2="867.5779" y2="205.0656" gradientTransform="matrix(1 0 0 -1 0 1024)">
			<stop  offset="0" style="stop-color:#00ECF2"/>
			<stop  offset="0.146" style="stop-color:#00E3EF"/>
			<stop  offset="0.384" style="stop-color:#00CBE6"/>
			<stop  offset="0.6846" style="stop-color:#00A3D8"/>
			<stop  offset="1" style="stop-color:#0072C7"/>
		</linearGradient>
		<path class="st3" d="M403.1,144.1c-0.4,0-0.7,0-1.1,0s-0.7,0-1.1,0c-44.6,0.6-80.6,36.9-80.6,81.7c0,45.1,36.6,81.7,81.7,81.7
			c121.4,0,219.8,98.4,219.8,219.8c0,103.9-72.1,191-169,213.9l1.4,1.4c141.6-24.8,249.2-148.3,249.2-297
			C703.6,279.4,569.2,144.6,403.1,144.1z M402.1,290.5c-35.7,0-64.7-29-64.7-64.7s29-64.7,64.7-64.7s64.7,29,64.7,64.7
			C466.8,261.5,437.8,290.5,402.1,290.5z"/>
		
			<linearGradient id="SVGID_2_" gradientUnits="userSpaceOnUse" x1="-13.3427" y1="978.1008" x2="596.7313" y2="354.0557" gradientTransform="matrix(1 0 0 -1 0 1024)">
			<stop  offset="0" style="stop-color:#00ECF2"/>
			<stop  offset="0.146" style="stop-color:#00E3EF"/>
			<stop  offset="0.384" style="stop-color:#00CBE6"/>
			<stop  offset="0.6846" style="stop-color:#00A3D8"/>
			<stop  offset="1" style="stop-color:#0072C7"/>
		</linearGradient>
		<path class="st4" d="M402.1,350.9c-35,0-63.3,28.4-63.3,63.3s28.3,63.3,63.3,63.3c65.8,0,119.1,53.3,119.1,119.1
			c0,52.1-33.5,96.4-80.1,112.6l1.9,1.9c81-18.5,141.5-91.1,141.5-177.8C584.5,432.6,502.8,350.9,402.1,350.9z M402.1,464.4
			c-27.7,0-50.2-22.5-50.2-50.2s22.5-50.2,50.2-50.2s50.2,22.5,50.2,50.2S429.8,464.4,402.1,464.4z"/>
	</g>
</g>
</svg>
