<svg xmlns="http://www.w3.org/2000/svg" xmlns:xlink="http://www.w3.org/1999/xlink" viewBox="0 0 550.55 894.43"><defs><style>.cls-1{fill:url(#Degradado_sin_nombre_38);}.cls-2{fill:url(#Degradado_sin_nombre_38-2);}.cls-3{fill:url(#Degradado_sin_nombre_38-3);}.cls-4{fill:url(#Degradado_sin_nombre_38-4);}.cls-5{fill:url(#Degradado_sin_nombre_38-5);}.cls-6{fill:url(#Degradado_sin_nombre_38-6);}.cls-7{fill:#fff;}</style><linearGradient id="Degradado_sin_nombre_38" x1="103.24" y1="812.08" x2="103.24" y2="-39.83" gradientUnits="userSpaceOnUse"><stop offset="0" stop-color="#4f32d3"/><stop offset="1" stop-color="#ad64e6"/></linearGradient><linearGradient id="Degradado_sin_nombre_38-2" x1="256.18" y1="812.08" x2="256.18" y2="-39.83" xlink:href="#Degradado_sin_nombre_38"/><linearGradient id="Degradado_sin_nombre_38-3" x1="370.9" y1="812.08" x2="370.9" y2="-39.83" xlink:href="#Degradado_sin_nombre_38"/><linearGradient id="Degradado_sin_nombre_38-4" x1="275.27" y1="812.08" x2="275.27" y2="-39.83" xlink:href="#Degradado_sin_nombre_38"/><linearGradient id="Degradado_sin_nombre_38-5" x1="129.35" y1="812.08" x2="129.35" y2="-39.83" xlink:href="#Degradado_sin_nombre_38"/><linearGradient id="Degradado_sin_nombre_38-6" x1="421.2" y1="812.08" x2="421.2" y2="-39.83" xlink:href="#Degradado_sin_nombre_38"/></defs><title>logo_wordmark_white</title><g id="Capa_2" data-name="Capa 2"><g id="Capa_1-2" data-name="Capa 1"><path class="cls-1" d="M206.47,573.14a344.15,344.15,0,0,1-84.06,53.69A725.26,725.26,0,0,1,68.76,526.7C39.11,459.38,18.09,385.19,7.62,306.49A874.48,874.48,0,0,1,0,190.93H91.76a726.08,726.08,0,0,0,9.17,115.56,671.73,671.73,0,0,0,52,172.79A594.39,594.39,0,0,0,206.47,573.14Z"/><path class="cls-2" d="M328.84,396.47a484.52,484.52,0,0,1-53.57,100.21,485,485,0,0,1-53.56-100.21,536.71,536.71,0,0,1-26.61-90,576.33,576.33,0,0,1-11.58-115.56h91.75a428.54,428.54,0,0,0,15.66,115.56A383.85,383.85,0,0,0,328.84,396.47Z"/><path class="cls-3" d="M550.55,190.93a874.48,874.48,0,0,1-7.62,115.56A833.46,833.46,0,0,1,520.1,418.86,787.33,787.33,0,0,1,481.79,526.7a726.34,726.34,0,0,1-53.65,100.13,652.21,652.21,0,0,1-68.85,89.47,573.68,573.68,0,0,1-84,75.23,573.61,573.61,0,0,1-84-75.23,451.94,451.94,0,0,0,84-63.08,523.7,523.7,0,0,0,68.8-80.08,593.65,593.65,0,0,0,53.59-93.86,655.62,655.62,0,0,0,38.28-107.84q8.3-31.72,13.67-64.95h-58C376,272.49,367,233,367,190.93Z"/><polygon class="cls-4" points="275.27 0 298.16 46.37 349.34 53.81 312.31 89.91 321.05 140.88 275.27 116.81 229.5 140.88 238.24 89.91 201.21 53.81 252.39 46.37 275.27 0"/><polygon class="cls-5" points="129.35 42.26 145.37 74.72 181.19 79.93 155.27 105.2 161.39 140.88 129.35 124.03 97.3 140.88 103.42 105.2 77.5 79.93 113.33 74.72 129.35 42.26"/><polygon class="cls-6" points="421.2 42.26 437.22 74.72 473.05 79.93 447.13 105.2 453.24 140.88 421.2 124.03 389.16 140.88 395.28 105.2 369.36 79.93 405.18 74.72 421.2 42.26"/><path class="cls-7" d="M69,894.43a25.68,25.68,0,0,1-9.87-1.92,25.36,25.36,0,0,1-14-14,25.59,25.59,0,0,1-1.92-9.86v-47H55.6v47a13.18,13.18,0,0,0,1,5.21,13.39,13.39,0,0,0,7.17,7.17,13.45,13.45,0,0,0,10.42,0,13.39,13.39,0,0,0,7.17-7.17,13.18,13.18,0,0,0,1-5.21v-47H94.79v47a25.77,25.77,0,0,1-1.91,9.86,25.42,25.42,0,0,1-14,14A25.68,25.68,0,0,1,69,894.43Z"/><path class="cls-7" d="M185.15,821.8v70.53H172.81V843.18L157.37,865.1,141.75,843v49.33H129.42V821.8h12.42l15.53,21.93,15.44-21.93Z"/><path class="cls-7" d="M232.66,821.8h13.06l27.5,70.8H260l-6-15.53H225L219,892.6H205.89Zm-3,42.94h19.55l-10-25.49Z"/><path class="cls-7" d="M341,821.89v12H323.56v58.56H311.23V833.86H294.14v-12Z"/><path class="cls-7" d="M406.15,892.15a35,35,0,0,1-13.34-2.56,34.17,34.17,0,0,1-11.7-7.77,35.82,35.82,0,0,1-7.76-11.69,35.41,35.41,0,0,1-1.92-6.49,35,35,0,0,1-.64-6.76,37,37,0,0,1,2.56-13.34,34.92,34.92,0,0,1,7.76-11.6,34.14,34.14,0,0,1,11.7-7.76,35.33,35.33,0,0,1,13.34-2.65,35.71,35.71,0,0,1,24.94,10.41l-8.77,8.68a22,22,0,0,0-7.59-5,23.39,23.39,0,0,0-17.26,0,22,22,0,0,0-7.59,5,23.05,23.05,0,0,0-5,7.45,23.2,23.2,0,0,0,0,17.63,23,23,0,0,0,5,7.44,22.56,22.56,0,0,0,7.4,4.94,23.14,23.14,0,0,0,8.87,1.73,22.76,22.76,0,0,0,8.81-1.73,22.49,22.49,0,0,0,7.36-4.94l8.77,8.68a35.06,35.06,0,0,1-24.94,10.33Z"/><path class="cls-7" d="M507.28,821.89v70.53H495V860.63H468.64v31.79H456.3V821.89h12.34v26.4H495v-26.4Z"/></g></g></svg>