<?xml version="1.0" encoding="utf-8"?>
<!-- Generator: Adobe Illustrator 23.0.6, SVG Export Plug-In . SVG Version: 6.00 Build 0)  -->
<svg version="1.1" id="Capa_1" xmlns="http://www.w3.org/2000/svg" xmlns:xlink="http://www.w3.org/1999/xlink" x="0px" y="0px"
	 viewBox="0 0 24 24" style="enable-background:new 0 0 24 24;" xml:space="preserve">
<style type="text/css">
	.st0{fill:#FFFFFF;}
	.st1{fill:none;}
</style>
<g>
	<g>
		<path class="st0" d="M12,20.4c4.6,0,8.4-3.8,8.4-8.4S16.6,3.6,12,3.6S3.6,7.4,3.6,12S7.4,20.4,12,20.4z M12,4.3
			c4.3,0,7.7,3.5,7.7,7.7s-3.5,7.7-7.7,7.7S4.3,16.3,4.3,12S7.7,4.3,12,4.3z"/>
		<path class="st0" d="M12.7,14.8c0.1,0.1,0.2,0.1,0.2,0.1s0.2,0,0.2-0.1c0.1-0.1,0.1-0.3,0-0.5L10.9,12l2.3-2.3
			c0.1-0.1,0.1-0.3,0-0.5s-0.3-0.1-0.5,0l-2.5,2.5c-0.1,0.1-0.1,0.3,0,0.5L12.7,14.8z"/>
	</g>
	<rect class="st1" width="24" height="24"/>
</g>
</svg>
