<?xml version="1.0" encoding="utf-8"?>
<!-- Generator: Adobe Illustrator 23.0.6, SVG Export Plug-In . SVG Version: 6.00 Build 0)  -->
<svg version="1.1" id="Capa_1" xmlns="http://www.w3.org/2000/svg" xmlns:xlink="http://www.w3.org/1999/xlink" x="0px" y="0px"
	 viewBox="0 0 24 24" style="enable-background:new 0 0 24 24;" xml:space="preserve">
<style type="text/css">
	.st0{fill:none;}
	.st1{fill:url(#SVGID_1_);}
</style>
<rect class="st0" width="24" height="24"/>
<g>
	<g>
		<linearGradient id="SVGID_1_" gradientUnits="userSpaceOnUse" x1="4.0947" y1="19.9053" x2="19.9053" y2="4.0947">
			<stop  offset="0" style="stop-color:#6457E3"/>
			<stop  offset="1" style="stop-color:#AD64E6"/>
		</linearGradient>
		<path class="st1" d="M19.9,4.1C17.8,2,15,0.8,12,0.8S6.2,2,4.1,4.1C2,6.2,0.8,9,0.8,12s1.2,5.8,3.3,7.9C6.2,22,9,23.2,12,23.2
			s5.8-1.2,7.9-3.3c2.1-2.1,3.3-4.9,3.3-7.9S22,6.2,19.9,4.1z M14.4,9c1.1-1.1,2.9-1.1,4,0c0.3,0.3,0.3,0.7,0,0.9
			c-0.1,0.1-0.3,0.2-0.5,0.2s-0.3-0.1-0.5-0.2c-0.6-0.6-1.5-0.6-2.1,0c-0.3,0.3-0.7,0.3-0.9,0C14.2,9.7,14.2,9.3,14.4,9z M5.6,9
			C6.7,8,8.5,8,9.6,9c0.3,0.3,0.3,0.7,0,0.9c-0.1,0.1-0.3,0.2-0.5,0.2S8.8,10.1,8.6,10c-0.6-0.6-1.5-0.6-2.1,0
			c-0.3,0.3-0.7,0.3-0.9,0C5.4,9.7,5.4,9.3,5.6,9z M12,19.7c-3.6,0-6.6-2.9-6.6-6.6c0-0.4,0.3-0.7,0.7-0.7h11.8
			c0.4,0,0.7,0.3,0.7,0.7C18.6,16.8,15.6,19.7,12,19.7z"/>
	</g>
</g>
</svg>
