<?xml version="1.0" encoding="utf-8"?>
<!-- Generator: Adobe Illustrator 23.0.6, SVG Export Plug-In . SVG Version: 6.00 Build 0)  -->
<svg version="1.1" id="Capa_1" xmlns="http://www.w3.org/2000/svg" xmlns:xlink="http://www.w3.org/1999/xlink" x="0px" y="0px"
	 viewBox="0 0 24 24" style="enable-background:new 0 0 24 24;" xml:space="preserve">
<style type="text/css">
	.st0{fill:none;}
	.st1{fill:#0CECF2;}
</style>
<rect class="st0" width="24" height="24"/>
<g>
	<path class="st1" d="M12,1.3C6.1,1.3,1.3,6.1,1.3,12S6.1,22.7,12,22.7S22.7,17.9,22.7,12S17.9,1.3,12,1.3z M17.7,3.7h-0.2l-1.7-1
		C16.5,3,17.1,3.3,17.7,3.7z M6.2,3.8l3.4-0.3L9.4,6.2l-3.7,2L4.3,6.8L6.2,3.8z M2.5,15.4L2.5,15.4C2.6,15.4,2.6,15.4,2.5,15.4
		c0.2,0,0.4-0.1,0.4-0.2c0.1-0.2,0-0.4-0.2-0.4l-0.5-0.2c-0.2-0.9-0.4-1.8-0.4-2.7c0-2.5,0.9-4.8,2.5-6.6L3.6,6.7
		C3.5,6.8,3.5,7,3.6,7.1l1.8,1.7c0.1,0.1,0.1,0.1,0.2,0.1s0.1,0,0.2,0l4-2.2C9.9,6.6,10,6.5,10,6.4l0.3-3.2c0-0.1,0-0.2-0.1-0.3
		S10,2.8,9.9,2.8L7.4,3.1C8.8,2.4,10.3,2,12,2l-1.2,0.5c-0.2,0.1-0.2,0.3-0.2,0.4c0.1,0.1,0.2,0.2,0.3,0.2H11l1.4-0.6
		c0.2-0.1,0.2-0.3,0.2-0.4c0,0,0,0,0-0.1c0.3,0,0.6,0,1,0.1l3.7,2.3c0,0,0.1,0.1,0.2,0.1l0,0l0.9-0.1c1.9,1.5,3.2,3.7,3.5,6.2
		L21.6,11l-0.9-0.1c-0.2,0-0.3,0.1-0.4,0.3s0.1,0.3,0.3,0.4l0.9,0.1l0.5,1.7c-0.2,1.9-1,3.6-2,5l-2.5-0.1c-0.1,0-0.1,0-0.2,0
		l-3.8,2.3c-0.1,0.1-0.2,0.2-0.1,0.3l0.2,1.2C13,22,12.5,22,12,22C7.7,22.1,4,19.3,2.5,15.4z M14.1,21.8l-0.1-1l3.6-2.1l1.9,0.1
		C18,20.3,16.2,21.4,14.1,21.8z"/>
	<path class="st1" d="M17.4,6.5c0.2,0,0.3-0.1,0.3-0.3V4.8c0-0.2-0.1-0.3-0.3-0.3s-0.3,0.1-0.3,0.3v1.4C17.1,6.4,17.3,6.5,17.4,6.5z
		"/>
	<path class="st1" d="M17.4,15.1c-0.2,0-0.3,0.1-0.3,0.3v2.2c0,0.2,0.1,0.3,0.3,0.3s0.3-0.1,0.3-0.3v-2.2
		C17.8,15.2,17.6,15.1,17.4,15.1z"/>
	<path class="st1" d="M17.4,14.9c0.1,0,0.2-0.1,0.3-0.1l2.4-3.6c0.1-0.1,0.1-0.2,0-0.3L17.9,7c-0.1-0.1-0.2-0.2-0.4-0.2l-4.2,1.3
		c-0.1,0-0.2,0.2-0.2,0.3L13,12.8c0,0.1,0.1,0.3,0.2,0.3L17.4,14.9C17.4,14.9,17.4,14.9,17.4,14.9z M13.7,8.7l3.7-1.2l2,3.5
		l-2.1,3.2l-3.7-1.6L13.7,8.7z"/>
	<path class="st1" d="M9.7,15.1L6,13c-0.1-0.1-0.3-0.1-0.4,0.1l-2.2,2.1c-0.1,0.1-0.1,0.3,0,0.4l2.6,4c0.1,0.1,0.2,0.1,0.3,0.1l0,0
		l3.6-0.2c0.2,0,0.3-0.2,0.3-0.3l-0.1-3.8C9.9,15.2,9.8,15.1,9.7,15.1z M6.3,19L4,15.4l1.9-1.8l3.4,1.9l0.1,3.3L6.3,19z"/>
	<path class="st1" d="M10.5,15.1l2.1-1.4c0.1-0.1,0.2-0.3,0.1-0.4c-0.1-0.1-0.3-0.2-0.4-0.1l-2.1,1.4c-0.2,0-0.2,0.2-0.1,0.4
		C10.2,15.1,10.3,15.1,10.5,15.1C10.4,15.1,10.5,15.1,10.5,15.1z"/>
	<path class="st1" d="M12.9,20.1l-2.3-0.9c-0.2-0.1-0.4,0-0.4,0.2c-0.1,0.2,0,0.4,0.2,0.4l2.3,0.9h0.1c0.1,0,0.3-0.1,0.3-0.2
		C13.1,20.3,13.1,20.1,12.9,20.1z"/>
	<path class="st1" d="M10.3,7.1l2.2,1.2c0.1,0,0.1,0,0.2,0c0.1,0,0.2-0.1,0.3-0.2c0.1-0.1,0-0.3-0.1-0.4l-2.2-1.2
		c-0.1-0.1-0.4,0-0.4,0.1C10.1,6.8,10.1,7,10.3,7.1z"/>
	<path class="st1" d="M5.7,12.6c0.2,0,0.3-0.1,0.3-0.3V9.6c0-0.2-0.1-0.3-0.3-0.3c-0.2,0-0.3,0.1-0.3,0.3v2.7
		C5.3,12.4,5.5,12.6,5.7,12.6z"/>
</g>
</svg>
