<?xml version="1.0" encoding="utf-8"?>
<!-- Generator: Adobe Illustrator 23.0.6, SVG Export Plug-In . SVG Version: 6.00 Build 0)  -->
<svg version="1.1" id="Capa_1" xmlns="http://www.w3.org/2000/svg" xmlns:xlink="http://www.w3.org/1999/xlink" x="0px" y="0px"
	 viewBox="0 0 24 24" style="enable-background:new 0 0 24 24;" xml:space="preserve">
<style type="text/css">
	.st0{fill:none;}
	.st1{fill:none;stroke:#6457E3;stroke-width:0.75;stroke-miterlimit:10;}
</style>
<rect class="st0" width="24" height="24"/>
<g>
	<circle class="st1" cx="14.49" cy="13.15" r="2.76"/>
	<path class="st1" d="M21.13,13.15c0,1.21-0.33,2.34-0.9,3.31c-1.13,1.93-3.23,3.22-5.63,3.22c-3.61,0-6.53-2.92-6.53-6.53H0.81
		V6.62H14.6C18.2,6.62,21.13,9.54,21.13,13.15z"/>
	<path class="st1" d="M0.71,6.62l2.25-2.25h13.09c0.23-0.03,0.47-0.04,0.71-0.04c3.61,0,6.53,2.92,6.53,6.53
		c0,2.38-1.27,4.46-3.17,5.6"/>
	<g>
		<line class="st1" x1="11.24" y1="6.62" x2="13.38" y2="4.48"/>
	</g>
	<g>
		<line class="st1" x1="14.03" y1="6.62" x2="16.16" y2="4.48"/>
	</g>
</g>
</svg>
